<?xml version="1.0" encoding="UTF-8"?>
<svg id="Layer_2" data-name="Layer 2" xmlns="http://www.w3.org/2000/svg" viewBox="0 0 238.98 128.46">
  <defs>
    <style>
      .cls-1 {
        fill: #4582af;
      }

      .cls-1, .cls-2, .cls-3, .cls-4 {
        stroke-width: 0px;
      }

      .cls-2, .cls-5 {
        fill: #cb8586;
      }

      .cls-3 {
        fill: #231f20;
      }

      .cls-5 {
        stroke: #4582af;
        stroke-miterlimit: 10;
        stroke-width: 1.03px;
      }

      .cls-4 {
        fill: #f9f3e2;
      }
    </style>
  </defs>
  <g id="Layer_1-2" data-name="Layer 1">
    <g>
      <g>
        <path class="cls-4" d="M25.77,72.92c-10.01.13-20-2.72-23.27-13.02-3.12-9.8-1.79-22.6.61-32.46C5.54,17.45,10.23,7.72,17.91.64c9.85,8.83,13.98,12.4,21.74,18.19,20.46,15.27,40.35,27.56,65.9,33.35,5.47,1.24,10.49,1.78,13.96,2.43h0c-.74,18.29.72,48.38.68,66.72-.01,2.89.22,3.32-2.24,3.67-17.79,2.51-40.25,5.6-57.17-1.95-14.39-6.42-25.91-18.34-31.19-33.09-2.04-5.69-2.72-11.57-2.71-17.48"/>
        <path class="cls-2" d="M59.46,32.25s-3.2,16.57-4.57,32.87c-1.68,20.1.44,29.98,1.14,32.98,1.45,6.22,2.08,9.66,4.57,14.85,1.16,2.41,1.8,3.49,3.24,6.06.92,1.65,2.89,4.62,4.11,6.02.34.39,6.57,1.77,8.89,2.22-9.61-12.47-14.23-30.38-14.42-43.45-.14-9.78.34-19.56,1.6-29.24.63-4.86,1.38-9.7,2.15-14.54.33-2.11.49-2.64-1.25-3.88-1.43-1.02-2.87-2.04-4.31-3.06-.38-.27-.78-.53-1.15-.82Z"/>
        <path class="cls-2" d="M30.53,11.62s.32,17.32-1.42,35.02c-2.12,21.56-2.58,31.32-.96,38.7,0,0,1.78,8.17,7.36,16.94,1.5,2.35,4.39,5.93,4.39,5.93,2.16,2.54,2.92,3.15,2.92,3.15,0,0,2.22,1.99,3.29,2.85,1.08.86,2.2,1.67,3.31,2.49-4.76-7.74-9.56-15.58-12.23-24.27-3.58-11.66-3.1-24.15-1.85-36.28,1.12-10.86,2.05-21.75,3.05-32.63.25-2.67.4-5.48-1.68-7.45-1.85-1.76-4.16-2.9-6.18-4.45Z"/>
        <path class="cls-2" d="M85.85,45.58c.26.24-.42,2.8-.46,3.1-.53,3.62-1.06,7.23-1.56,10.85-1.14,8.28-1.9,16.62-1.87,24.98.05,13.38,1.84,28.17,8.37,40.23,1.44,2.66,1.49,2.73,1.49,2.73,2.13.04,4.88.54,6.91.01,0-1.22-1.09-2.86-1.56-4.06-.57-1.44-1.1-2.9-1.59-4.37-.98-2.94-1.81-5.92-2.51-8.94-1.38-6.04-2.21-12.19-2.57-18.35-.42-7.26-.21-14.53.43-21.77.52-5.87,1.29-11.72,1.96-17.58.12-1.02.24-2.05.55-3.03.02-.05-2.55-1.27-2.79-1.38-1.4-.7-3.67-1.36-4.8-2.42Z"/>
        <path class="cls-2" d="M120.33,124.37c.22-4.89.04-9.02.04-17.8-.34-17.9-.83-28.27-.61-52.16l-4.01-.67-3.73-.63c-.12,3.07-.26,7.42-.52,14.39-1.28,34.92,2.11,52.69,2.92,57.85,0,0,0,.11.08.52l2.8-.46c.92-.15,1.81-.44,2.65-.85l.39-.19Z"/>
        <g>
          <path class="cls-4" d="M17.71,1.61c5.12,17.65,13.73,34.68,27.17,47.36,13.17,12.43,31.2,19.59,49.53,18.49,8.37-.5,22.42-3.55,25.08-12.78l.02-.06c-3.47-.66-8.49-1.19-13.96-2.43-25.55-5.79-45.45-18.08-65.9-33.35C31.89,13.04,27.76,9.47,17.91.64"/>
          <path class="cls-3" d="M17.09,1.78c5.59,19.17,15.32,38.05,31.02,50.88,14.53,11.88,34.22,18.07,52.88,14.64,7.29-1.34,16.87-4.51,19.15-12.51.09-.32-.11-.73-.45-.8-3.77-.7-7.58-1.15-11.34-1.89-4.12-.8-8.19-1.87-12.2-3.1-7.53-2.3-14.84-5.29-21.87-8.82-13.67-6.88-26.4-15.69-38.46-25.08C29.77,10.4,24.06,5.29,18.36.18c-.62-.56-1.54.36-.92.92,5.19,4.65,10.38,9.32,15.85,13.66,5.72,4.54,11.63,8.85,17.66,12.98,12.93,8.85,26.71,16.51,41.62,21.49,4.43,1.48,8.95,2.74,13.52,3.73s8.83,1.45,13.24,2.28l-.45-.8c-2,7.02-10.35,9.94-16.74,11.31-8.36,1.8-17.17,1.48-25.49-.43-9.36-2.15-18.2-6.35-25.84-12.16-7.76-5.9-14.19-13.49-19.35-21.72-5.82-9.29-10.06-19.49-13.12-30-.23-.8-1.49-.46-1.25.35h0Z"/>
        </g>
        <path class="cls-1" d="M17.45,1.1c5.19,4.65,10.38,9.32,15.85,13.66,5.72,4.54,11.63,8.85,17.66,12.98,12.93,8.85,26.71,16.51,41.62,21.49,4.43,1.48,8.95,2.74,13.52,3.73s8.83,1.45,13.24,2.28l-.48-.63c-.57,14.36-.03,28.76.31,43.11.16,6.93.34,13.86.37,20.79,0,1.49.08,3.01,0,4.5-.02.46-.01.8-.42,1.06-.53.34-1.49.32-2.09.41-3.8.54-7.6,1.06-11.41,1.49-15.31,1.76-31.99,2.62-46.24-4.28-13.2-6.39-23.98-17.71-29.04-31.55-3.12-8.52-3.17-17.66-2.36-26.59s2.11-17.28,2.51-25.99c.1-2.2.15-4.39.15-6.59,0-.84-1.3-.84-1.3,0-.02,9.12-1.05,18.15-2.09,27.21-1.04,9.04-1.75,18.28.33,27.23,3.43,14.71,13.93,27.47,26.8,35.07,6.64,3.92,13.84,6.28,21.47,7.28,8.24,1.08,16.6.79,24.85.03,3.9-.36,7.79-.84,11.68-1.36,1.91-.26,3.83-.51,5.74-.8.93-.14,2-.32,2.45-1.25.51-1.04.26-2.55.26-3.66,0-1.62-.01-3.23-.03-4.85-.04-3.6-.11-7.19-.18-10.79-.33-15.22-.92-30.46-.62-45.69.03-1.59.08-3.19.14-4.78.01-.26-.21-.58-.48-.63-3.77-.7-7.58-1.15-11.34-1.89-4.12-.8-8.19-1.87-12.2-3.1-7.53-2.3-14.84-5.29-21.87-8.82-13.67-6.88-26.4-15.69-38.46-25.08C29.77,10.4,24.06,5.29,18.36.18c-.62-.56-1.54.36-.92.92h0Z"/>
        <path class="cls-1" d="M17.45.18C7.58,9.37,2.77,22.45.86,35.53c-.96,6.58-1.28,13.37-.12,19.95.98,5.54,3.17,10.64,7.93,13.91s11.23,4.24,17.08,4.18c.83,0,.84-1.31,0-1.3-5.15.05-10.55-.58-15.1-3.17-4.95-2.81-7.38-7.56-8.48-12.99-1.27-6.28-1.05-12.85-.22-19.17s2.23-12.3,4.53-18.07c2.66-6.68,6.58-12.86,11.87-17.77.61-.57-.31-1.49-.92-.92h0Z"/>
        <path class="cls-1" d="M17.09,1.78c5.59,19.17,15.32,38.05,31.02,50.88,14.51,11.86,34.18,18.05,52.82,14.65,7.37-1.35,16.83-4.51,19.2-12.52.24-.8-1.01-1.15-1.25-.35-2.08,7.04-10.34,9.94-16.8,11.32-8.34,1.78-17.13,1.46-25.42-.44-9.36-2.15-18.2-6.35-25.84-12.16-7.76-5.9-14.19-13.49-19.35-21.72-5.82-9.29-10.06-19.49-13.12-30-.23-.8-1.49-.46-1.25.35h0Z"/>
      </g>
      <g>
        <path class="cls-4" d="M213.21,72.92c10.01.13,20-2.72,23.27-13.02,3.12-9.8,1.79-22.6-.61-32.46-2.44-9.99-7.12-19.72-14.81-26.8-9.85,8.83-13.98,12.4-21.74,18.19-20.46,15.27-40.35,27.56-65.9,33.35-5.47,1.24-10.49,1.78-13.96,2.43h0c.74,18.29-.72,48.38-.68,66.72.01,2.89-.22,3.32,2.24,3.67,17.79,2.51,40.25,5.6,57.17-1.95,14.39-6.42,25.91-18.34,31.19-33.09,2.04-5.69,2.72-11.57,2.71-17.48"/>
        <path class="cls-2" d="M179.52,32.25s3.2,16.57,4.57,32.87c1.68,20.1-.44,29.98-1.14,32.98-1.45,6.22-2.08,9.66-4.57,14.85-1.16,2.41-1.8,3.49-3.24,6.06-.92,1.65-2.89,4.62-4.11,6.02-.34.39-6.57,1.77-8.89,2.22,9.61-12.47,14.23-30.38,14.42-43.45.14-9.78-.34-19.56-1.6-29.24-.63-4.86-1.38-9.7-2.15-14.54-.33-2.11-.49-2.64,1.25-3.88,1.43-1.02,2.87-2.04,4.31-3.06.38-.27.78-.53,1.15-.82Z"/>
        <path class="cls-2" d="M208.45,11.62s-.32,17.32,1.42,35.02c2.12,21.56,2.58,31.32.96,38.7,0,0-1.78,8.17-7.36,16.94-1.5,2.35-4.39,5.93-4.39,5.93-2.16,2.54-2.92,3.15-2.92,3.15,0,0-2.22,1.99-3.29,2.85-1.08.86-2.2,1.67-3.31,2.49,4.76-7.74,9.56-15.58,12.23-24.27,3.58-11.66,3.1-24.15,1.85-36.28-1.12-10.86-2.05-21.75-3.05-32.63-.25-2.67-.4-5.48,1.68-7.45,1.85-1.76,4.16-2.9,6.18-4.45Z"/>
        <path class="cls-2" d="M153.13,45.58c-.26.24.42,2.8.46,3.1.53,3.62,1.06,7.23,1.56,10.85,1.14,8.28,1.9,16.62,1.87,24.98-.05,13.38-1.84,28.17-8.37,40.23-1.44,2.66-1.49,2.73-1.49,2.73-2.13.04-4.88.54-6.91.01,0-1.22,1.09-2.86,1.56-4.06.57-1.44,1.1-2.9,1.59-4.37.98-2.94,1.81-5.92,2.51-8.94,1.38-6.04,2.21-12.19,2.57-18.35.42-7.26.21-14.53-.43-21.77-.52-5.87-1.29-11.72-1.96-17.58-.12-1.02-.24-2.05-.55-3.03-.02-.05,2.55-1.27,2.79-1.38,1.4-.7,3.67-1.36,4.8-2.42Z"/>
        <path class="cls-4" d="M118.85,54.66c.46,1.8,1.43,3.57,2.75,4.88,1.47,1.46,3.11,2.58,4.84,3.65.39.24.46.95.48,2.04.02,1.15.04,2.31.06,3.46.05,2.41.09,4.83.12,7.24.07,4.85.1,9.71.04,14.56-.13,9.65-.64,19.32-2.09,28.87-.21,1.39-.32,1.73-.53,2.75-.23,1.16-.49,2.05-.74,2.65-.32.76-3.43.3-4.95-.16h.59c-1.52.46-4.63.92-4.95.16-.25-.59-.5-1.49-.74-2.65-.21-1.03-.32-1.37-.53-2.75-1.45-9.55-1.96-19.22-2.09-28.87-.07-4.85-.03-9.71.04-14.56.03-2.41.08-4.83.12-7.24.02-1.15.04-2.31.06-3.46.02-1.08.08-1.79.48-2.04,1.73-1.07,3.37-2.19,4.84-3.65,1.32-1.31,2.29-3.07,2.75-4.88"/>
        <g>
          <path class="cls-4" d="M221.26,1.61c-5.12,17.65-13.73,34.68-27.17,47.36-13.17,12.43-31.2,19.59-49.53,18.49-8.37-.5-22.42-3.55-25.08-12.78l-.02-.06c3.47-.66,8.49-1.19,13.96-2.43,25.55-5.79,45.45-18.08,65.9-33.35,7.75-5.79,11.89-9.36,21.74-18.19"/>
          <path class="cls-3" d="M220.64,1.43c-5.39,18.48-14.62,36.56-29.43,49.26-13.98,11.99-33.3,18.51-51.68,15.56-7.1-1.14-17.18-3.92-19.43-11.81l-.45.8c3.85-.72,7.74-1.17,11.58-1.93,4.11-.81,8.17-1.88,12.17-3.11,7.5-2.31,14.78-5.29,21.79-8.8,13.75-6.89,26.52-15.76,38.65-25.18,6.13-4.76,11.92-9.94,17.69-15.12.62-.56-.3-1.47-.92-.92-5.16,4.62-10.31,9.25-15.72,13.57-5.72,4.55-11.65,8.87-17.69,12.99-12.9,8.82-26.65,16.46-41.54,21.37-4.38,1.45-8.85,2.69-13.36,3.65s-8.68,1.42-13,2.22c-.34.06-.54.48-.45.8,2.02,7.08,9.91,10.36,16.43,11.94,8.42,2.04,17.33,1.91,25.8.19,9.78-1.98,19.09-6.21,27.09-12.15,8.02-5.94,14.68-13.59,20.03-21.98,6.11-9.56,10.52-20.13,13.69-31,.23-.8-1.02-1.15-1.25-.35h0Z"/>
        </g>
        <path class="cls-1" d="M118.83,54.49c-.59,2.14-1.73,3.88-3.39,5.34-.82.73-1.71,1.37-2.63,1.98-.62.41-1.46.74-1.81,1.44-.32.65-.26,1.51-.28,2.21-.03,1.23-.05,2.46-.07,3.69-.04,2.33-.09,4.67-.12,7-.14,9.52-.13,19.05.5,28.55.31,4.63.77,9.25,1.43,13.84.25,1.76.55,3.55,1.03,5.26.31,1.11.57,1.81,1.8,1.96.64.07,1.29,0,1.92-.07.68-.09,1.48-.41,2.15-.42.37,0,1.33.32,1.85.39.95.14,1.9.27,2.85.4,3.83.53,7.67,1.04,11.52,1.44,15.44,1.63,31.86,1.91,46.01-5.39,12.83-6.62,23.18-17.88,28.21-31.46,3.13-8.45,3.3-17.53,2.54-26.41s-2.15-17.59-2.56-26.46c-.11-2.27-.16-4.54-.16-6.82,0-.83-1.29-.83-1.28,0,.01,8.48.9,16.88,1.87,25.3s1.96,17.42.49,26.07c-2.48,14.51-12.04,27.41-24.19,35.42-6.09,4.02-12.79,6.81-19.97,8.16-7.66,1.43-15.53,1.46-23.29.97-3.78-.24-7.55-.62-11.32-1.07s-7.48-.83-11.16-1.5c-.57-.1-1.05-.39-1.62-.31-.78.11-1.53.37-2.33.45-.43.04-1.38.24-1.73-.06-.47-.4-.59-1.91-.71-2.46-.84-3.98-1.28-8.04-1.65-12.08-.84-9.1-1.02-18.24-.97-27.37.02-4.44.1-8.88.18-13.31.02-1.15.04-2.3.06-3.45,0-.48-.07-1.11.08-1.56.18-.55.71-.8,1.19-1.11,1.58-1.04,3.18-2.19,4.42-3.64,1.13-1.33,1.91-2.89,2.37-4.57.22-.8-1.02-1.14-1.24-.34h0Z"/>
        <path class="cls-1" d="M118.83,54.49c-.81,2.93-2.71,4.98-5.13,6.71-.77.55-1.98,1.02-2.55,1.79s-.41,2.09-.43,2.97c-.11,5.99-.23,11.98-.25,17.97-.03,12,.27,24.15,2.21,36.02.17,1.05.39,2.11.64,3.15.18.75.32,1.94,1.03,2.41,1.32.86,3.91.1,5.27-.29.79-.23.46-1.47-.34-1.24-.85.24-1.72.42-2.6.5s-1.55.24-1.84-.68c-.6-1.96-.91-4.04-1.19-6.06-.79-5.61-1.27-11.27-1.54-16.93-.54-11.11-.33-22.23-.12-33.34.01-.74.02-1.48.04-2.22,0-.23-.02-.59.03-.83.15-.64.33-.73.86-1.11,1.05-.74,2.12-1.42,3.1-2.25,1.97-1.66,3.37-3.7,4.05-6.19.22-.8-1.02-1.14-1.24-.34h0Z"/>
        <path class="cls-1" d="M220.61.18c-5.16,4.62-10.31,9.25-15.72,13.57-5.72,4.55-11.65,8.87-17.69,12.99-12.9,8.82-26.65,16.46-41.54,21.37-4.38,1.45-8.85,2.69-13.36,3.65s-8.68,1.42-13,2.22c-.82.15-.47,1.4.35,1.25,3.85-.72,7.74-1.17,11.58-1.93,4.11-.81,8.17-1.88,12.17-3.11,7.5-2.31,14.78-5.29,21.79-8.8,13.75-6.89,26.52-15.76,38.65-25.18,6.13-4.76,11.92-9.94,17.69-15.12.62-.56-.3-1.47-.92-.92h0Z"/>
        <path class="cls-1" d="M220.61,1.1c9.36,8.71,14.01,20.96,16.03,33.34,1.04,6.4,1.47,13.05.53,19.5-.81,5.53-2.65,10.91-7.4,14.24s-10.86,4.15-16.56,4.09c-.84,0-.84,1.29,0,1.3,5.32.05,10.9-.63,15.61-3.27,4.97-2.77,7.75-7.43,9-12.87,1.5-6.55,1.36-13.44.53-20.07s-2.27-12.95-4.71-19.03c-2.74-6.82-6.72-13.13-12.12-18.16-.61-.57-1.53.35-.92.92h0Z"/>
        <path class="cls-1" d="M220.64,1.43c-5.34,18.3-14.43,36.16-28.97,48.86s-32.97,18.73-51.32,16.09c-7.23-1.04-17.32-3.63-20.07-11.37-.28-.78-1.53-.44-1.25.35,2.49,6.99,10.4,10.07,17.06,11.56,8.52,1.9,17.48,1.66,25.98-.21,9.61-2.11,18.74-6.38,26.59-12.3,7.85-5.93,14.39-13.5,19.65-21.79,6.05-9.52,10.43-20.02,13.58-30.83.23-.8-1.02-1.15-1.25-.35h0Z"/>
      </g>
      <g>
        <circle class="cls-5" cx="119.49" cy="70.61" r="4.22"/>
        <circle class="cls-5" cx="119.49" cy="92.16" r="4.22"/>
        <circle class="cls-5" cx="119.49" cy="113.62" r="4.22"/>
      </g>
    </g>
  </g>
</svg>