<?xml version="1.0" encoding="UTF-8"?>
<svg id="Layer_2" data-name="Layer 2" xmlns="http://www.w3.org/2000/svg" viewBox="0 0 184.56 69.48">
  <defs>
    <style>
      .cls-1 {
        fill: #bfe2f5;
      }

      .cls-1, .cls-2 {
        stroke: #4582af;
        stroke-miterlimit: 10;
        stroke-width: 1.03px;
      }

      .cls-2 {
        fill: #68736b;
      }
    </style>
  </defs>
  <g id="Layer_1-2" data-name="Layer 1">
    <g>
      <g>
        <path class="cls-1" d="M92.34,13.99h.04c-25.85,0-49.15,8.96-65.52,23.29l-7.09-4.83C37.92,16.57,63.74,6.64,92.38,6.64h-.04"/>
        <g>
          <path class="cls-2" d="M31.46,28.9c-1.97-.64-3.96-.32-4.44.72l-.03.06c-9.08-2.81-20.03,2.79-24.54,12.61-4.51,9.81-.89,20.13,8.08,23.17l-.12.27c-.48,1.04.73,2.4,2.71,3.04.02,0,.04.01.06.02,2.06.64,4.28-.51,4.66-2.32,1.15-5.4,3.95-11.77,6.85-18.03,2.82-6.08,5.14-10.88,8.41-15.17,1.18-1.55.45-3.67-1.59-4.35-.02,0-.04-.01-.06-.02Z"/>
          <path class="cls-1" d="M27.02,29.9l-16.3,35.44c-.35.75-1.36,1.13-2.25.84h0c-.9-.29-1.34-1.14-1-1.89L23.77,28.84c.35-.75,1.36-1.13,2.25-.84h0c.9.29,1.34,1.14,1,1.89Z"/>
        </g>
      </g>
      <g>
        <path class="cls-1" d="M92.21,13.99h-.04c25.85,0,49.15,8.96,65.52,23.29l7.09-4.83c-18.14-15.89-43.96-25.81-72.61-25.81h.04"/>
        <g>
          <path class="cls-2" d="M153.09,28.9c1.97-.64,3.96-.32,4.44.72l.03.06c9.08-2.81,20.03,2.79,24.54,12.61,4.51,9.81.89,20.13-8.08,23.17l.12.27c.48,1.04-.73,2.4-2.71,3.04-.02,0-.04.01-.06.02-2.06.64-4.28-.51-4.66-2.32-1.15-5.4-3.95-11.77-6.85-18.03-2.82-6.08-5.14-10.88-8.41-15.17-1.18-1.55-.45-3.67,1.59-4.35.02,0,.04-.01.06-.02Z"/>
          <path class="cls-1" d="M157.53,29.9l16.3,35.44c.35.75,1.36,1.13,2.25.84h0c.9-.29,1.34-1.14,1-1.89l-16.3-35.44c-.35-.75-1.36-1.13-2.25-.84h0c-.9.29-1.34,1.14-1,1.89Z"/>
        </g>
      </g>
      <path class="cls-2" d="M133.63,23.24c-7.37-5.3-23.12-8.96-41.35-8.96s-33.81,3.58-41.21,8.85l-.05-.03c-2.92-2.07-4.56-4.4-4.56-6.85,0-8.69,20.51-15.74,45.81-15.74s45.81,7.05,45.81,15.74c0,2.44-1.61,4.75-4.5,6.81"/>
    </g>
  </g>
</svg>