<?xml version="1.0" encoding="UTF-8"?>
<svg id="Layer_2" data-name="Layer 2" xmlns="http://www.w3.org/2000/svg" xmlns:xlink="http://www.w3.org/1999/xlink" viewBox="0 0 233.67 203.58">
  <defs>
    <style>
      .cls-1 {
        fill: url(#linear-gradient);
      }

      .cls-1, .cls-2, .cls-3, .cls-4 {
        stroke-miterlimit: 10;
        stroke-width: 1.03px;
      }

      .cls-1, .cls-2, .cls-4 {
        stroke: #4582af;
      }

      .cls-2 {
        fill: #ebe895;
      }

      .cls-3 {
        stroke: #f9f3e2;
      }

      .cls-3, .cls-4 {
        fill: none;
      }
    </style>
    <linearGradient id="linear-gradient" x1="116.83" y1=".51" x2="116.83" y2="190.22" gradientUnits="userSpaceOnUse">
      <stop offset=".75" stop-color="#b8b89f"/>
      <stop offset=".82" stop-color="#b4b59c"/>
      <stop offset=".87" stop-color="#aaac96"/>
      <stop offset=".92" stop-color="#999e8b"/>
      <stop offset=".96" stop-color="#82897c"/>
      <stop offset="1" stop-color="#68736b"/>
    </linearGradient>
  </defs>
  <g id="Layer_1-2" data-name="Layer 1">
    <g>
      <g>
        <path class="cls-2" d="M88.02,183.03c-1.57-.95-4.33.67-6.41,3.67-.48.59-.94,1.32-1.34,2.16.36-1.18.3-2.23-.27-2.97-1.39-1.82-5.32-1.2-9.1,1.32-.13.07-.27.16-.4.24,1.15-1.01,1.72-2.12,1.45-3.1-.5-1.77-3.62-2.47-7.19-1.7-1.56.21-3.46.93-5.3,2.13-3.62,2.35-5.67,5.62-4.58,7.3,1.09,1.68,4.91,1.13,8.53-1.22.33-.22.65-.44.96-.67.46-.08.94-.19,1.41-.33,1.24-.35,2.36-.83,3.3-1.39-1.15.95-2.3,2.17-3.34,3.63-3.11,4.38-3.99,9.1-1.96,10.54,2.03,1.44,6.2-.94,9.31-5.32.29-.4.55-.81.8-1.22.5-.31,1-.65,1.49-1.02,1.98-1.51,3.48-3.27,4.33-4.9-.2.54-.37,1.1-.52,1.69-1.04,4.19-.3,7.98,1.64,8.46,1.94.48,4.36-2.53,5.4-6.72.1-.39.17-.77.24-1.15.28-.38.55-.78.81-1.2,2.12-3.52,2.46-7.21.74-8.24Z"/>
        <path class="cls-2" d="M145.65,183.03c1.57-.95,4.33.67,6.41,3.67.48.59.94,1.32,1.34,2.16-.36-1.18-.3-2.23.27-2.97,1.39-1.82,5.32-1.2,9.1,1.32.13.07.27.16.4.24-1.15-1.01-1.72-2.12-1.45-3.1.5-1.77,3.62-2.47,7.19-1.7,1.56.21,3.46.93,5.3,2.13,3.62,2.35,5.67,5.62,4.58,7.3-1.09,1.68-4.91,1.13-8.53-1.22-.33-.22-.65-.44-.96-.67-.46-.08-.94-.19-1.41-.33-1.24-.35-2.36-.83-3.3-1.39,1.15.95,2.3,2.17,3.34,3.63,3.11,4.38,3.99,9.1,1.96,10.54-2.03,1.44-6.2-.94-9.31-5.32-.29-.4-.55-.81-.8-1.22-.5-.31-1-.65-1.49-1.02-1.98-1.51-3.48-3.27-4.33-4.9.2.54.37,1.1.52,1.69,1.04,4.19.3,7.98-1.64,8.46-1.94.48-4.36-2.53-5.4-6.72-.1-.39-.17-.77-.24-1.15-.28-.38-.55-.78-.81-1.2-2.12-3.52-2.46-7.21-.74-8.24Z"/>
      </g>
      <path class="cls-1" d="M232.9,100.26c-1.02-12.52-5.06-23.62-10.78-31.52l.02-.09-3.27-4.19c-11.09-14.2-24.02-26.86-38.45-37.64,0,0,0,0,0,0,2.98,1.4,7.09.47,10.49-2.29.09.08.16.16.25.24,3.62,2.98,9.92,1.3,14.08-3.75,4.16-5.05,4.6-11.55.98-14.53-.73-.6-1.56-1-2.47-1.23-.16-.05-.33-.1-.5-.14-14.66-3.01-29.75-3.23-44.48-.66l-10.5,1.83s0,0,0,0c-9.96-3.79-20.76-5.84-32-5.78-10.94.06-21.42,2.1-31.1,5.76,0,0,0,0,0,0l-10.4-1.81c-14.74-2.57-29.83-2.35-44.48.66h0c-.17.04-.34.08-.5.14-.9.23-1.74.63-2.47,1.23-3.62,2.98-3.18,9.48.98,14.53,4.16,5.05,10.46,6.72,14.08,3.75.09-.07.17-.16.25-.24,3.92,3.17,8.73,3.91,11.73,1.47h0c-14.87,10.95-28.18,23.89-39.55,38.46l-3.27,4.19.02.09c-5.73,7.9-9.76,19-10.78,31.52-2.07,25.46,9.13,47.15,25.01,48.45.54.04,1.09.06,1.63.06,0,0,0,0,0,0,7.26,23.14,29.2,40.87,54.11,41.44,4.24.1,8.38-.26,12.37-1.02,15.14-2.91,30.64-2.91,45.79,0,3.99.77,8.13,1.12,12.37,1.02,24.91-.58,46.84-18.3,54.11-41.45.02,0,.04,0,.06,0v.06s.03-.06.03-.06c.56,0,1.12-.01,1.68-.06,15.88-1.29,27.08-22.98,25.01-48.45Z"/>
      <path class="cls-4" d="M206.11,89.8c0,1.11-.02,2.21-.06,3.3-.36,9.7.18,19.41,1.88,28.96.66,3.7.97,7.52.89,11.43-.61,30.2-26.44,56.11-56.64,56.81"/>
      <path class="cls-4" d="M27.56,89.8c0,1.11.02,2.21.06,3.3.36,9.7-.18,19.41-1.88,28.96-.66,3.7-.97,7.52-.89,11.43.61,30.2,26.44,56.11,56.64,56.81"/>
      <path class="cls-3" d="M191.5,71.97c0-23.93-19.4-43.32-43.32-43.32-12.29,0-23.37,5.12-31.26,13.34-7.88-8.22-18.97-13.34-31.26-13.34-23.93,0-43.32,19.4-43.32,43.32,0,17.43,10.29,32.44,25.13,39.32,12.78,6.9,30.22,11.15,49.45,11.15s36.67-4.25,49.45-11.15c14.83-6.88,25.13-21.89,25.13-39.32Z"/>
    </g>
  </g>
</svg>