<?xml version="1.0" encoding="UTF-8"?>
<svg id="Layer_2" data-name="Layer 2" xmlns="http://www.w3.org/2000/svg" xmlns:xlink="http://www.w3.org/1999/xlink" viewBox="0 0 150.04 94.72">
  <defs>
    <style>
      .cls-1 {
        fill: #4582af;
      }

      .cls-1, .cls-2, .cls-3, .cls-4, .cls-5, .cls-6 {
        stroke-miterlimit: 10;
        stroke-width: 1.03px;
      }

      .cls-1, .cls-3, .cls-5, .cls-6 {
        stroke: #4582af;
      }

      .cls-2 {
        fill: url(#linear-gradient);
        stroke: url(#linear-gradient-2);
      }

      .cls-3 {
        fill: #cb8586;
      }

      .cls-4 {
        fill: #b8b89f;
        stroke: #b8b89f;
      }

      .cls-5 {
        fill: none;
      }

      .cls-6 {
        fill: #fff;
      }
    </style>
    <linearGradient id="linear-gradient" x1="75.02" y1="94.21" x2="75.02" y2=".51" gradientUnits="userSpaceOnUse">
      <stop offset="0" stop-color="#f9f3e2"/>
      <stop offset=".23" stop-color="#f7efdf"/>
      <stop offset=".41" stop-color="#f3e5d6"/>
      <stop offset=".58" stop-color="#ecd4c8"/>
      <stop offset=".74" stop-color="#e2bdb4"/>
      <stop offset=".9" stop-color="#d59e9b"/>
      <stop offset="1" stop-color="#cb8586"/>
    </linearGradient>
    <linearGradient id="linear-gradient-2" y1="94.72" y2="0" xlink:href="#linear-gradient"/>
  </defs>
  <g id="Layer_1-2" data-name="Layer 1">
    <g>
      <path class="cls-2" d="M149.53,43.79c0-23.9-19.38-43.28-43.28-43.28-12.28,0-23.35,5.12-31.23,13.33C67.14,5.63,56.07.51,43.79.51,19.89.51.51,19.89.51,43.79c0,17.41,10.28,32.41,25.1,39.28,12.77,6.89,30.19,11.14,49.4,11.14s36.63-4.24,49.4-11.14c14.82-6.87,25.1-21.87,25.1-39.28Z"/>
      <g>
        <path class="cls-6" d="M53.17,38.98c0,9.33-10.7,16.9-23.91,16.9s-23.91-7.56-23.91-16.9h47.81Z"/>
        <path class="cls-6" d="M144.52,38.98c0,9.33-10.7,16.9-23.91,16.9s-23.91-7.56-23.91-16.9h47.81Z"/>
        <path class="cls-1" d="M34.13,38.96c0,2.61-2.11,4.72-4.72,4.72s-4.72-2.11-4.72-4.72"/>
        <path class="cls-1" d="M125.12,38.96c0,2.61-2.11,4.72-4.72,4.72s-4.72-2.11-4.72-4.72"/>
        <path class="cls-5" d="M105.93,56.66c4.1,4,9.31,6.4,14.98,6.4"/>
        <path class="cls-5" d="M43.94,56.66c-4.1,4-9.31,6.4-14.98,6.4"/>
      </g>
      <g>
        <ellipse class="cls-1" cx="43.36" cy="27.62" rx="4.81" ry="11.4" transform="translate(-2.24 51.37) rotate(-60)"/>
        <ellipse class="cls-1" cx="106.67" cy="27.62" rx="11.4" ry="4.81" transform="translate(.48 57.04) rotate(-30)"/>
      </g>
      <ellipse class="cls-4" cx="74.92" cy="42.1" rx="5.77" ry="14.25"/>
      <g>
        <path class="cls-3" d="M74.77,52.31s-.55-2.24-2.05-4.12c-1.55-1.94-3.34-2.53-4.23-2.72-2.17-.46-3.86.39-4.6.76-6.2,3.12-13.42,16.98-10.78,22.77.51,1.12,1.67,2.55,3.08,2.48,5.84-.31,8.13-25.99,13.07-25.73,1.02.05,2.51,1.24,3.47,2.44,1.47,1.83,2.06,4.11,2.05,4.12Z"/>
        <path class="cls-3" d="M75.06,52.31s.55-2.24,2.05-4.12c1.55-1.94,3.34-2.53,4.23-2.72,2.17-.46,3.86.39,4.6.76,6.2,3.12,13.42,16.98,10.78,22.77-.51,1.12-1.67,2.55-3.08,2.48-5.84-.31-8.13-25.99-13.07-25.73-1.02.05-2.51,1.24-3.47,2.44-1.47,1.83-2.06,4.11-2.05,4.12Z"/>
      </g>
    </g>
  </g>
</svg>