<?xml version="1.0" encoding="UTF-8"?>
<svg id="Layer_2" data-name="Layer 2" xmlns="http://www.w3.org/2000/svg" viewBox="0 0 220.58 127.45">
  <defs>
    <style>
      .cls-1 {
        fill: #4582af;
      }

      .cls-1, .cls-2 {
        stroke-width: 0px;
      }

      .cls-3 {
        fill: #cb8586;
        stroke: #fff;
        stroke-miterlimit: 10;
        stroke-width: 1.08px;
      }

      .cls-2 {
        fill: #fff;
      }
    </style>
  </defs>
  <g id="Layer_1-2" data-name="Layer 1">
    <g>
      <g>
        <path class="cls-1" d="M219.55,8.7c-1.62-2.56-3.47-4.98-5.57-7.19-1.03-1.08-2.74-1.15-3.85-.16-8.5,7.59-12.58,11.06-19.8,16.46-20.46,15.27-40.35,27.56-65.9,33.35-.05.01-.11.02-.16.04-8.96,2.01-18.28,2.01-27.24,0-.05-.01-.11-.02-.16-.04-25.55-5.79-45.45-18.08-65.9-33.35C23.73,12.42,19.65,8.95,11.15,1.35c-1.11-1-2.82-.92-3.85.16C4.71,4.22,2.51,7.25.65,10.49h0c6.05,6.72,12.61,12.95,19.63,18.64h0c.65.53,1.03,1.32,1.02,2.16-.09,9.54-1.09,17.16-2.2,26.85-1.18,10.33-1.77,20.84,1.8,30.8,5.29,14.75,16.8,26.68,31.19,33.09,16.92,7.54,39.37,4.46,57.17,1.95.3-.04.56-.09.78-.13.39-.09.79-.09,1.18,0,.22.05.48.09.78.13,17.79,2.51,40.25,5.6,57.17-1.95,14.39-6.42,25.91-18.34,31.19-33.09,3.57-9.97,2.98-20.48,1.8-30.8-1.11-9.69-2.11-17.31-2.2-26.85,0-.84.37-1.63,1.02-2.16h0c6.49-5.26,12.59-10.98,18.24-17.11.84-.91.97-2.27.31-3.32Z"/>
        <path class="cls-1" d="M220.11,8.37c-1.21-1.9-2.54-3.73-4-5.45C214.99,1.6,213.84-.02,211.92,0s-3.25,1.78-4.54,2.93c-1.57,1.4-3.15,2.79-4.74,4.16-5.81,5.02-11.89,9.69-18.12,14.17-13.86,9.99-28.56,18.95-44.7,24.73-8.59,3.08-17.65,5.66-26.81,6.01s-18.63-1.77-27.57-4.66c-16.33-5.28-31.26-13.83-45.25-23.65-6.41-4.49-12.72-9.16-18.71-14.19-3.16-2.65-6.24-5.39-9.31-8.13C10.94.3,9.56-.43,7.93.3s-2.98,2.82-4.07,4.22c-1.39,1.79-2.64,3.68-3.78,5.64-.15.26-.09.57.1.79,4.72,5.23,9.74,10.18,15.06,14.8,1.33,1.16,2.68,2.29,4.04,3.4.56.45,1.12.86,1.31,1.61.23.9.04,1.99.02,2.92-.09,3.45-.31,6.89-.61,10.33-1.24,13.87-4.45,28.22-.7,41.97,3.04,11.17,10.17,21.22,19.14,28.45,4.41,3.56,9.33,6.54,14.57,8.7,5.6,2.31,11.61,3.47,17.62,3.99,12.46,1.07,24.99-.56,37.31-2.29.76-.11,1.53-.28,2.29-.35.85-.07,1.72.15,2.56.27,1.47.21,2.94.41,4.41.61,2.99.4,5.98.79,8.98,1.11,6.35.68,12.74,1.11,19.12.95s12.29-.86,18.18-2.6c5.57-1.64,10.83-4.3,15.61-7.59,9.35-6.43,16.82-15.46,21.1-25.99,5.44-13.38,3.21-27.59,1.68-41.5-.37-3.37-.7-6.75-.92-10.14-.11-1.74-.2-3.48-.25-5.22-.05-1.61-.47-3.57.77-4.79s2.76-2.27,4.09-3.42,2.67-2.34,3.98-3.54c2.62-2.4,5.16-4.89,7.63-7.45,1.83-1.9,4.51-3.92,2.95-6.8-.4-.74-1.52-.08-1.12.66,1.03,1.9-.92,3.31-2.11,4.56-1.28,1.34-2.58,2.67-3.9,3.97-2.42,2.38-4.92,4.7-7.47,6.94-1.28,1.12-2.58,2.22-3.89,3.3-1.03.85-2.03,1.56-2.25,2.97-.24,1.53,0,3.23.06,4.78.06,1.65.16,3.3.27,4.95.97,13.72,4.41,27.79,1.86,41.52-2.17,11.67-9.01,22.32-17.9,30.05-4.33,3.77-9.23,6.9-14.46,9.27-5.58,2.53-11.65,3.84-17.73,4.42-12.35,1.19-24.8-.36-37.02-2.07-1.24-.17-2.56-.53-3.81-.53-1.37,0-2.83.4-4.19.59-3.1.43-6.2.85-9.31,1.21-6.13.71-12.29,1.21-18.46,1.21s-12.29-.49-18.25-1.96-11.07-3.85-16.02-7.03c-9.67-6.21-17.51-15.28-21.93-25.91-5.5-13.23-3.35-27.27-1.82-41.06.37-3.3.7-6.61.93-9.92.11-1.57.2-3.15.26-4.73s.4-3.56,0-5.12c-.32-1.21-1.25-1.86-2.17-2.62-1.36-1.12-2.7-2.26-4.03-3.42-2.59-2.27-5.11-4.62-7.56-7.04-2.4-2.37-4.72-4.81-6.98-7.31l.1.79c1.17-2.02,2.46-3.97,3.9-5.8,1.12-1.41,3-4.57,5.16-3.49.99.49,1.88,1.59,2.71,2.32s1.7,1.51,2.55,2.26c1.4,1.23,2.81,2.45,4.23,3.65,5.68,4.82,11.65,9.29,17.71,13.61,13.38,9.54,27.56,18.04,43.06,23.67,8.14,2.96,16.72,5.47,25.39,6.13,9.17.7,18.07-.93,26.83-3.51,15.85-4.66,30.52-12.37,44.2-21.55,6.63-4.45,13.11-9.15,19.37-14.1,2.75-2.18,5.44-4.44,8.09-6.75,1.59-1.38,3.16-2.78,4.74-4.18.79-.7,1.63-1.76,2.77-1.79,1.26-.03,2.08,1.17,2.83,2.02,1.57,1.79,2.96,3.7,4.24,5.71.45.7,1.57.05,1.12-.66Z"/>
      </g>
      <path class="cls-2" d="M212.48.92c-11.56,10.32-23.46,20.08-36.34,28.73-12.18,8.18-25.13,15.27-39.07,19.94-7.54,2.53-15.39,4.67-23.37,5.07s-16.18-1.09-24.05-3.36c-14.26-4.11-27.57-10.72-40.04-18.7S24.87,15.21,13.47,5.31c-1.64-1.42-3.26-2.86-4.88-4.3-1.23-1.1-3.05.71-1.82,1.82,11.72,10.47,24.01,20.28,37.06,29.05,12.48,8.39,25.78,15.59,40.08,20.34,7.57,2.51,15.42,4.59,23.42,5.01s16.53-1.04,24.56-3.33c14.48-4.13,28.05-10.79,40.72-18.86,13.03-8.3,25.22-17.79,36.82-27.98,1.63-1.43,3.25-2.87,4.86-4.31,1.24-1.1-.59-2.92-1.82-1.82h0Z"/>
      <g>
        <g>
          <path class="cls-3" d="M84.19,82.03l-.41-3.4,1.7-.21-1.24-10.21-1.7.21-.41-3.4,5.11-.62,6.29,9.1-.77-6.32-1.7.21-.41-3.4,6.81-.83.41,3.4-1.7.21,1.65,13.61-3.4.41-6.29-9.1.77,6.32,1.7-.21.41,3.4-6.81.83Z"/>
          <path class="cls-3" d="M104.29,80.1l-2.8-2.68-.27-11.65,2.68-2.8,4.8-.11,2.8,2.68.27,11.65-2.68,2.8-4.8.11ZM104.9,76.65l3.43-.08-.24-10.28-3.43.08.24,10.28Z"/>
          <path class="cls-3" d="M116.69,80.1l-2.59-2.89.64-11.64,2.89-2.59,4.79.26,2.59,2.89-.13,2.4-3.42-.19.09-1.71-3.42-.19-.56,10.27,3.42.19.09-1.71,3.42.19-.13,2.4-2.89,2.59-4.79-.26Z"/>
          <path class="cls-3" d="M127.02,75.61l3.4.48-.24,1.7,3.4.48.48-3.4-4.07-.57-2.34-3.1.67-4.75,3.1-2.34,4.75.66,2.34,3.1-.33,2.38-3.4-.48.24-1.7-3.4-.48-.47,3.4,4.03.56,2.38,3.1-.66,4.75-3.1,2.34-4.75-.67-2.34-3.1.33-2.38Z"/>
        </g>
        <g>
          <path class="cls-3" d="M95.41,113.76l-4.68-4.68v-19.91l4.68-4.68h8.2l4.68,4.68v19.91l-4.68,4.68h-8.2ZM96.58,107.91h5.86v-17.57h-5.86v17.57Z"/>
          <path class="cls-3" d="M130.05,93.27h-5.86v-2.93h-5.86v5.86h7.03l4.68,4.68v8.2l-4.68,4.68h-8.2l-4.68-4.68v-19.91l4.68-4.68h8.2l4.68,4.68v4.1ZM118.33,107.91h5.86v-5.86h-5.86v5.86Z"/>
        </g>
      </g>
      <g>
        <path class="cls-2" d="M1.39,9.8c5.87,6.13,11.96,12.05,18.24,17.75,1.22,1.11,3.04-.7,1.82-1.82C15.17,20.03,9.08,14.11,3.21,7.99c-1.15-1.2-2.96.62-1.82,1.82h0Z"/>
        <path class="cls-2" d="M218,7.99c-5.87,6.13-11.96,12.05-18.24,17.75-1.23,1.11.59,2.93,1.82,1.82,6.28-5.7,12.37-11.62,18.24-17.75,1.14-1.19-.67-3.01-1.82-1.82h0Z"/>
      </g>
    </g>
  </g>
</svg>