<?xml version="1.0" encoding="UTF-8"?>
<svg id="Layer_2" data-name="Layer 2" xmlns="http://www.w3.org/2000/svg" viewBox="0 0 110.68 88.66">
  <defs>
    <style>
      .cls-1 {
        fill: #cb8586;
      }

      .cls-1, .cls-2, .cls-3 {
        stroke: #4582af;
        stroke-miterlimit: 10;
        stroke-width: 1.03px;
      }

      .cls-2 {
        fill: #68736b;
      }

      .cls-3 {
        fill: none;
      }
    </style>
  </defs>
  <g id="Layer_1-2" data-name="Layer 1">
    <g>
      <path class="cls-2" d="M55.31,88.15c30.3,0,54.86-5.6,54.86-12.51,0-4.65-11.03-8.7-27.53-10.85v.06c-2.4-9.65-1.79-19.93,1.86-29.28l10.19-26.1-.04.02c0-4.95-17.61-8.97-39.33-8.97h.06c-21.72,0-39.33,4.02-39.33,8.97l-.04-.02,10.19,26.1c3.65,9.35,4.26,19.62,1.85,29.28v-.06c-16.49,2.16-27.52,6.2-27.52,10.85,0,6.91,24.56,12.51,54.86,12.51"/>
      <path class="cls-3" d="M55.31,18.45c21.72,0,39.33-4.02,39.33-8.97,0-4.95-17.61-8.97-39.33-8.97h.06c-21.72,0-39.33,4.02-39.33,8.97s17.61,8.97,39.33,8.97"/>
      <path class="cls-1" d="M55.31,74.17c11.68,0,22.18-1.16,29.38-3.01l-.02-.09h0c-2.2-5.48-3.35-11.3-3.46-17.13h0c-6.92,1.38-15.98,2.22-25.91,2.22h.06c-9.92,0-18.99-.84-25.91-2.22h0c-.1,5.83-1.25,11.65-3.46,17.13h0s-.02.09-.02.09c7.2,1.84,17.7,3.01,29.38,3.01"/>
    </g>
  </g>
</svg>