<?xml version="1.0" encoding="UTF-8"?>
<svg id="Layer_2" data-name="Layer 2" xmlns="http://www.w3.org/2000/svg" xmlns:xlink="http://www.w3.org/1999/xlink" viewBox="0 0 150.04 101.53">
  <defs>
    <style>
      .cls-1 {
        fill: url(#linear-gradient-2);
      }

      .cls-1, .cls-2, .cls-3, .cls-4, .cls-5, .cls-6, .cls-7, .cls-8 {
        stroke-miterlimit: 10;
        stroke-width: 1.03px;
      }

      .cls-1, .cls-3, .cls-4, .cls-5, .cls-8 {
        stroke: #4582af;
      }

      .cls-2 {
        stroke: #fff;
      }

      .cls-2, .cls-8 {
        fill: #fff;
      }

      .cls-3 {
        fill: #4582af;
      }

      .cls-4 {
        fill: url(#linear-gradient);
      }

      .cls-5 {
        fill: #cb8586;
      }

      .cls-6 {
        fill: #b8b89f;
        stroke: #b8b89f;
      }

      .cls-9 {
        fill: #bfe2f5;
        stroke-width: 0px;
      }

      .cls-7 {
        fill: #f9f3e2;
        stroke: #f9f3e2;
      }
    </style>
    <linearGradient id="linear-gradient" x1="117.9" y1="64.02" x2="117.9" y2="27.22" gradientUnits="userSpaceOnUse">
      <stop offset="0" stop-color="#ffdaa4"/>
      <stop offset=".5" stop-color="#4582af"/>
    </linearGradient>
    <linearGradient id="linear-gradient-2" x1="-3923.08" y1="64.02" x2="-3923.08" gradientTransform="translate(-3891.03) rotate(-180) scale(1 -1)" xlink:href="#linear-gradient"/>
  </defs>
  <g id="Layer_1-2" data-name="Layer 1">
    <g>
      <path class="cls-7" d="M149.53,50.6c0-23.9-19.38-43.28-43.28-43.28-12.28,0-23.35,5.12-31.23,13.33-7.88-8.21-18.95-13.33-31.23-13.33C19.89,7.32.51,26.7.51,50.6c0,17.41,10.28,32.41,25.1,39.28,12.77,6.89,30.19,11.14,49.4,11.14s36.63-4.24,49.4-11.14c14.82-6.87,25.1-21.87,25.1-39.28Z"/>
      <g>
        <g>
          <path class="cls-8" d="M100.31,64.44h0c12.8-5.93,27.61-5.9,40.37.12l.04.02c2.37-4.5,3.74-9.84,3.74-15.57,0-16.01-10.7-28.99-23.91-28.99s-23.91,12.98-23.91,28.99c0,5.67,1.34,10.96,3.66,15.43"/>
          <path class="cls-8" d="M100.31,64.44h0c12.8-5.93,27.61-5.9,40.37.12l.04.02c2.37-4.5,3.74-9.84,3.74-15.57,0-16.01-10.7-28.99-23.91-28.99s-23.91,12.98-23.91,28.99c0,5.67,1.34,10.96,3.66,15.43"/>
          <path class="cls-8" d="M100.31,64.44h0c12.8-5.93,27.61-5.9,40.37.12l.04.02c2.37-4.5,3.74-9.84,3.74-15.57,0-16.01-10.7-28.99-23.91-28.99s-23.91,12.98-23.91,28.99c0,5.67,1.34,10.96,3.66,15.43"/>
          <g>
            <path class="cls-4" d="M136.05,62.54c1.32-3.26,2.07-6.92,2.07-10.8,0-13.54-9.05-24.52-20.22-24.52s-20.22,10.98-20.22,24.52c0,4.47.99,8.66,2.72,12.28,11.29-5.12,24.08-5.61,35.66-1.47Z"/>
            <path class="cls-3" d="M114.07,60.15c2.69-.34,5.4-.45,8.1-.33,2.19-1.71,3.65-4.68,3.65-8.08,0-5.3-3.54-9.6-7.92-9.6s-7.92,4.3-7.92,9.6c0,3.62,1.65,6.77,4.09,8.4Z"/>
            <ellipse class="cls-2" cx="124.95" cy="42.19" rx="8.11" ry="8.12"/>
            <circle class="cls-2" cx="117.81" cy="53.08" r="4.26"/>
          </g>
        </g>
        <g>
          <path class="cls-8" d="M9.24,64.44h0c12.8-5.93,27.61-5.9,40.37.12l.04.02c2.37-4.5,3.74-9.84,3.74-15.57,0-16.01-10.7-28.99-23.91-28.99S5.58,33,5.58,49.01c0,5.67,1.34,10.96,3.66,15.43"/>
          <path class="cls-8" d="M9.24,64.44h0c12.8-5.93,27.61-5.9,40.37.12l.04.02c2.37-4.5,3.74-9.84,3.74-15.57,0-16.01-10.7-28.99-23.91-28.99S5.58,33,5.58,49.01c0,5.67,1.34,10.96,3.66,15.43"/>
          <path class="cls-8" d="M49.73,64.44h0c-12.8-5.93-27.61-5.9-40.37.12l-.04.02c-2.37-4.5-3.74-9.84-3.74-15.57,0-16.01,10.7-28.99,23.91-28.99,13.2,0,23.91,12.98,23.91,28.99,0,5.67-1.34,10.96-3.66,15.43"/>
          <g>
            <path class="cls-1" d="M13.9,62.54c-1.32-3.26-2.07-6.92-2.07-10.8,0-13.54,9.05-24.52,20.22-24.52,11.17,0,20.22,10.98,20.22,24.52,0,4.47-.99,8.66-2.72,12.28-11.29-5.12-24.08-5.61-35.66-1.47Z"/>
            <path class="cls-3" d="M35.88,60.15c-2.69-.34-5.4-.45-8.1-.33-2.19-1.71-3.65-4.68-3.65-8.08,0-5.3,3.54-9.6,7.92-9.6,4.37,0,7.92,4.3,7.92,9.6,0,3.62-1.65,6.77-4.09,8.4Z"/>
            <ellipse class="cls-2" cx="39.11" cy="42.19" rx="8.11" ry="8.12"/>
            <circle class="cls-2" cx="31.96" cy="53.08" r="4.26"/>
          </g>
        </g>
      </g>
      <g>
        <ellipse class="cls-3" cx="43.36" cy="7.58" rx="11.4" ry="4.81" transform="translate(2.02 22.7) rotate(-30)"/>
        <ellipse class="cls-3" cx="106.67" cy="7.58" rx="4.81" ry="11.4" transform="translate(46.78 96.17) rotate(-60)"/>
      </g>
      <ellipse class="cls-6" cx="75.02" cy="48.91" rx="5.77" ry="14.25"/>
      <path class="cls-5" d="M82.6,51.73c-2.53-.9-5.25-.47-7.06.66-.14.09-.32.2-.51.33-.19-.13-.37-.24-.51-.33-1.81-1.13-4.53-1.56-7.06-.66-2.79.99-5.58,3.69-5.19,6.03.04.25.17,1.01.79,1.48,1.23.93,2.89-.43,6.43-1.24.8-.18,1.54-.3,2.22-.39,2.2-.28,4.43-.28,6.63,0,.68.09,1.42.21,2.22.39,3.54.81,5.2,2.17,6.43,1.24.62-.47.75-1.23.79-1.48.39-2.34-2.4-5.04-5.19-6.03Z"/>
      <path class="cls-9" d="M13.81,63.78c.66-.29,1.31-.57,1.95-.79,1.88-.65,3.81-1.17,5.76-1.56,1-.2,2-.36,3.01-.49.62-.08,1.86-.02,2.16-.75.48-1.19-1.91-3.19-2.39-3.59-3.85-3.21-9.44-3.97-14.1-2.22-2.9,1.09-5.62,3.18-6.2,6.4-.19,1.05-.05,2.19.56,3.06.55.79,1.45,1.3,2.39,1.51,2.35.53,4.67-.6,6.87-1.58Z"/>
      <path class="cls-9" d="M136.21,63.78c-.66-.29-1.31-.57-1.95-.79-1.88-.65-3.81-1.17-5.76-1.56-1-.2-2-.36-3.01-.49-.62-.08-1.86-.02-2.16-.75-.48-1.19,1.91-3.19,2.39-3.59,3.85-3.21,9.44-3.97,14.1-2.22,2.9,1.09,5.62,3.18,6.2,6.4.19,1.05.05,2.19-.56,3.06-.55.79-1.45,1.3-2.39,1.51-2.35.53-4.67-.6-6.87-1.58Z"/>
    </g>
  </g>
</svg>