<?xml version="1.0" encoding="UTF-8"?>
<svg id="Layer_2" data-name="Layer 2" xmlns="http://www.w3.org/2000/svg" xmlns:xlink="http://www.w3.org/1999/xlink" viewBox="0 0 150.04 99.28">
  <defs>
    <style>
      .cls-1 {
        fill: url(#linear-gradient-2);
      }

      .cls-1, .cls-2, .cls-3, .cls-4, .cls-5, .cls-6, .cls-7, .cls-8, .cls-9 {
        stroke-miterlimit: 10;
        stroke-width: 1.03px;
      }

      .cls-1, .cls-3, .cls-4, .cls-6, .cls-9 {
        stroke: #4582af;
      }

      .cls-2 {
        stroke: #fff;
      }

      .cls-2, .cls-9 {
        fill: #fff;
      }

      .cls-3 {
        fill: #4582af;
      }

      .cls-4 {
        fill: url(#linear-gradient);
      }

      .cls-5 {
        fill: #b8b89f;
        stroke: #b8b89f;
      }

      .cls-6 {
        fill: none;
      }

      .cls-7 {
        fill: #ebe895;
        stroke: #ebe895;
      }

      .cls-8 {
        fill: #f9f3e2;
        stroke: #f9f3e2;
      }
    </style>
    <linearGradient id="linear-gradient" x1="34.45" y1="72.88" x2="34.45" y2="32.17" gradientUnits="userSpaceOnUse">
      <stop offset="0" stop-color="#ffdaa4"/>
      <stop offset=".5" stop-color="#4582af"/>
    </linearGradient>
    <linearGradient id="linear-gradient-2" x1="115.34" x2="115.34" xlink:href="#linear-gradient"/>
  </defs>
  <g id="Layer_1-2" data-name="Layer 1">
    <g>
      <path class="cls-8" d="M149.53,48.35c0-23.9-19.38-43.28-43.28-43.28-12.28,0-23.35,5.12-31.23,13.33-7.88-8.21-18.95-13.33-31.23-13.33C19.89,5.07.51,24.45.51,48.35c0,17.41,10.28,32.41,25.1,39.28,12.77,6.89,30.19,11.14,49.4,11.14s36.63-4.24,49.4-11.14c14.82-6.87,25.1-21.87,25.1-39.28Z"/>
      <g>
        <g>
          <ellipse class="cls-9" cx="29.46" cy="46.66" rx="23.91" ry="28.99"/>
          <ellipse class="cls-4" cx="34.45" cy="52.52" rx="16.78" ry="20.35"/>
          <ellipse class="cls-3" cx="34.45" cy="52.52" rx="6.57" ry="7.97"/>
          <circle class="cls-2" cx="42.31" cy="42.59" r="4.72"/>
          <circle class="cls-7" cx="30.12" cy="60.35" r="1.06"/>
          <circle class="cls-7" cx="27.05" cy="57.44" r="1.57"/>
        </g>
        <g>
          <ellipse class="cls-9" cx="120.58" cy="46.66" rx="23.91" ry="28.99"/>
          <ellipse class="cls-1" cx="115.34" cy="52.52" rx="16.78" ry="20.35"/>
          <ellipse class="cls-3" cx="115.34" cy="52.52" rx="6.57" ry="7.97"/>
          <circle class="cls-2" cx="123.2" cy="42.59" r="4.72"/>
          <circle class="cls-7" cx="111.01" cy="60.35" r="1.06"/>
          <circle class="cls-7" cx="107.95" cy="57.44" r="1.57"/>
        </g>
      </g>
      <g>
        <ellipse class="cls-3" cx="43.36" cy="5.33" rx="11.4" ry="4.81"/>
        <ellipse class="cls-3" cx="106.67" cy="5.33" rx="11.4" ry="4.81"/>
      </g>
      <g>
        <ellipse class="cls-5" cx="75.02" cy="46.66" rx="5.77" ry="14.25"/>
        <path class="cls-6" d="M89.16,49.31c-1.07-.33-3.22-.84-5.83-.3-2.84.59-4.65,2.09-5.43,2.75-1.22,1.03-2.02,2.1-2.53,2.88h-.71c-.5-.78-1.31-1.85-2.53-2.88-.77-.66-2.59-2.16-5.43-2.75-2.61-.54-4.76-.04-5.83.3"/>
      </g>
    </g>
  </g>
</svg>