<?xml version="1.0" encoding="UTF-8"?>
<svg id="Layer_2" data-name="Layer 2" xmlns="http://www.w3.org/2000/svg" viewBox="0 0 150.04 99.28">
  <defs>
    <style>
      .cls-1 {
        fill: #4582af;
      }

      .cls-1, .cls-2, .cls-3, .cls-4, .cls-5, .cls-6 {
        stroke-miterlimit: 10;
        stroke-width: 1.03px;
      }

      .cls-1, .cls-2, .cls-5 {
        stroke: #4582af;
      }

      .cls-2 {
        fill: #cb8586;
      }

      .cls-3 {
        fill: #b8b89f;
        stroke: #b8b89f;
      }

      .cls-4 {
        fill: #ffdaa4;
        stroke: #ffdaa4;
      }

      .cls-5 {
        fill: none;
      }

      .cls-6 {
        fill: #f9f3e2;
        stroke: #f9f3e2;
      }
    </style>
  </defs>
  <g id="Layer_1-2" data-name="Layer 1">
    <g>
      <path class="cls-6" d="M149.53,48.35c0-23.9-19.38-43.28-43.28-43.28-12.28,0-23.35,5.12-31.23,13.33-7.88-8.21-18.95-13.33-31.23-13.33C19.89,5.07.51,24.45.51,48.35c0,17.41,10.28,32.41,25.1,39.28,12.77,6.89,30.19,11.14,49.4,11.14s36.63-4.24,49.4-11.14c14.82-6.87,25.1-21.87,25.1-39.28Z"/>
      <g>
        <path class="cls-5" d="M100.19,31.51c4.2-8.3,11.76-13.84,20.39-13.84"/>
        <path class="cls-5" d="M49.83,31.51c-4.2-8.3-11.76-13.84-20.39-13.84"/>
      </g>
      <g>
        <ellipse class="cls-1" cx="43.36" cy="5.33" rx="11.4" ry="4.81"/>
        <ellipse class="cls-1" cx="106.67" cy="5.33" rx="11.4" ry="4.81"/>
      </g>
      <ellipse class="cls-3" cx="75.02" cy="46.66" rx="5.77" ry="14.25"/>
      <ellipse class="cls-3" cx="75.02" cy="64.45" rx="5.77" ry="14.25"/>
      <path class="cls-2" d="M89.37,44.64c-1.84.48-4.41,1.39-7.13,3.15-3.66,2.39-5.88,5.25-7.07,7.07h-.28c-1.19-1.81-3.41-4.68-7.07-7.07-2.71-1.77-5.28-2.67-7.13-3.15l14.12,29.8c.18.38.71.37.89,0l13.66-29.79Z"/>
      <g>
        <ellipse class="cls-4" cx="18.25" cy="57.66" rx="11.34" ry="8.78"/>
        <ellipse class="cls-4" cx="131.51" cy="57.66" rx="11.34" ry="8.78"/>
      </g>
      <path class="cls-1" d="M5.65,43.61c4.03-3.46,8.98-5.68,14.21-6.69,3.43-.66,6.96-.83,10.45-.57,8.06.59,15.81,3.28,23.21,6.48-9.45-2.54-19.2-4.98-28.93-3.9-6.8.76-13.38,3.26-18.94,7.2-.03-.84-.08-1.67,0-2.51"/>
      <path class="cls-1" d="M144.46,43.61c-4.03-3.46-8.98-5.68-14.21-6.69-3.43-.66-6.96-.83-10.45-.57-8.06.59-15.81,3.28-23.21,6.48,9.45-2.54,19.2-4.98,28.93-3.9,6.8.76,13.38,3.26,18.94,7.2.03-.84.08-1.67,0-2.51"/>
    </g>
  </g>
</svg>