<?xml version="1.0" encoding="UTF-8"?>
<svg id="Layer_2" data-name="Layer 2" xmlns="http://www.w3.org/2000/svg" xmlns:xlink="http://www.w3.org/1999/xlink" viewBox="0 0 258.87 262.31">
  <defs>
    <style>
      .cls-1, .cls-2, .cls-3, .cls-4, .cls-5, .cls-6, .cls-7 {
        stroke-width: 0px;
      }

      .cls-1, .cls-8 {
        fill: #4582af;
      }

      .cls-9 {
        clip-path: url(#clippath);
      }

      .cls-2 {
        fill: #cb8586;
      }

      .cls-3, .cls-10, .cls-11 {
        fill: none;
      }

      .cls-12, .cls-13, .cls-8, .cls-10, .cls-14, .cls-11, .cls-15, .cls-16, .cls-17 {
        stroke-miterlimit: 10;
      }

      .cls-12, .cls-13, .cls-8, .cls-10, .cls-14, .cls-15, .cls-17 {
        stroke: #4582af;
      }

      .cls-12, .cls-16 {
        fill: #f9f3e2;
      }

      .cls-13, .cls-7 {
        fill: #68736b;
      }

      .cls-4, .cls-15 {
        fill: #ebe895;
      }

      .cls-14 {
        fill: #b8b89f;
      }

      .cls-11 {
        stroke: #68736b;
      }

      .cls-5 {
        fill: #bfe2f5;
      }

      .cls-6 {
        fill: #95caa0;
      }

      .cls-16 {
        stroke: #f9f3e2;
      }

      .cls-17 {
        fill: url(#linear-gradient);
      }
    </style>
    <clipPath id="clippath">
      <polygon class="cls-3" points="152.51 127.1 129.03 98.21 105.55 127.1 152.51 127.1"/>
    </clipPath>
    <linearGradient id="linear-gradient" x1="129.03" y1="101.04" x2="129.03" y2="253.77" gradientUnits="userSpaceOnUse">
      <stop offset=".5" stop-color="#b8b89f"/>
      <stop offset=".63" stop-color="#b4b59c"/>
      <stop offset=".74" stop-color="#aaac96"/>
      <stop offset=".83" stop-color="#999e8b"/>
      <stop offset=".92" stop-color="#82897c"/>
      <stop offset="1" stop-color="#68736b"/>
    </linearGradient>
  </defs>
  <g id="Layer_1-2" data-name="Layer 1">
    <g>
      <g>
        <ellipse class="cls-5" cx="129.03" cy="238.09" rx="103.42" ry="24.23"/>
        <g>
          <path class="cls-15" d="M137.66,96.74c-.06-.81-1.28-1.52-3.12-1.99.81-1.41.97-2.56.31-3.09-.65-.52-1.99-.33-3.59.39-.56-1.45-1.35-2.36-2.22-2.36s-1.66.9-2.22,2.36c-1.6-.72-2.94-.91-3.59-.39s-.5,1.67.31,3.09c-1.85.47-3.06,1.19-3.12,1.99s1.07,1.56,2.91,2.07c-1.02,1.57-1.36,2.91-.7,3.54s2.17.4,3.99-.47c.56,1.8,1.43,2.97,2.43,2.97s1.88-1.17,2.43-2.97c1.82.88,3.33,1.11,3.99.47.65-.63.32-1.97-.7-3.54,1.85-.51,2.98-1.25,2.91-2.07Z"/>
          <g class="cls-9">
            <g>
              <polygon class="cls-2" points="86.36 110.6 84.32 106.84 130.45 92.83 134.03 95.19 86.36 110.6"/>
              <polygon class="cls-4" points="88.63 114.77 86.35 110.58 134.02 95.18 137.92 97.75 88.63 114.77"/>
              <polygon class="cls-2" points="91.17 119.44 88.62 114.75 137.91 97.75 142.18 100.56 91.17 119.44"/>
              <polygon class="cls-4" points="94.04 124.71 91.16 119.42 142.16 100.55 146.84 103.64 94.04 124.71"/>
            </g>
            <g>
              <polygon class="cls-2" points="97.29 130.68 94.01 124.66 146.8 103.6 151.96 107.01 97.29 130.68"/>
              <polygon class="cls-4" points="101.03 137.56 97.27 130.65 151.94 106.99 157.66 110.76 101.03 137.56"/>
              <polygon class="cls-2" points="105.38 145.54 101.02 137.54 157.64 110.75 164.01 114.95 105.38 145.54"/>
              <polygon class="cls-4" points="110.47 154.91 105.36 145.51 163.99 114.94 171.13 119.65 110.47 154.91"/>
            </g>
          </g>
          <path class="cls-10" d="M152.51,127.1l-21.43-26.38c-1.18-1.45-2.92-1.45-4.1,0l-21.43,26.38h46.96Z"/>
        </g>
        <path class="cls-17" d="M220.83,144.03c-.15-9.73-2.46-19.71-8.94-27.56-2.64-3.19-5.8-6.01-9.36-8.32-3.59-2.34-7.57-4.15-11.77-5.36-4.06-1.17-8.31-1.75-12.57-1.75-2.38,0-4.53.89-6.08,2.33-.29.27-.55.56-.78.85-1.53,1.94-1.8,4.5-.95,6.77,1.19,3.16,2.43,7.4,3,12.45,0,0,0,.02,0,.02-4.83,0-9.66.33-14.42,1l-7.48,1.05c-7.15-2.18-14.85-3.35-22.87-3.31-7.8.03-15.28,1.2-22.22,3.3l-7.41-1.04c-4.73-.67-9.52-.99-14.32-1,0,0,0-.02,0-.02.57-5.05,1.82-9.29,3-12.45.85-2.27.58-4.83-.95-6.77-.23-.29-.49-.58-.78-.85-1.56-1.44-3.71-2.33-6.08-2.33-4.25,0-8.5.59-12.57,1.75-4.19,1.2-8.18,3.02-11.77,5.36-3.55,2.31-6.72,5.13-9.36,8.32-6.48,7.85-8.79,17.83-8.94,27.56-.07,4.2.32,8.44,1.72,12.44,1.75,5.01,5.17,9.21,9.81,12.23,2.12,1.37,4.45,2.46,6.91,3.21,1.49.45,5.94,2.02,7.07.52.33-.45.44-1,.53-1.54.02-.14.05-.27.07-.41-.24,1.58-.42,3.18-.5,4.8,0,.02,0,.05,0,.07h0c-.03.67-.05,1.36-.05,2.04-.01,3.02-.19,6.05-.56,9.08-.37,3.03-.94,6.06-1.72,9.08-.31,1.19-.55,2.4-.72,3.64-.18,1.23-.28,2.48-.32,3.75-.51,19.73,18.68,37.11,42.12,37.58l-.04-.07s.03,0,.05,0c2.57.05,5.09-.09,7.55-.4-2.04,3.19-1.68,6.24,1.02,7.08,2.4.75,5.9-.47,8.66-2.82,0,0,0,.01,0,.02,0,5.21,2.71,9.43,6.04,9.43,1.62,0,3.09-1,4.18-2.63,1.09,1.62,2.56,2.63,4.18,2.63,3.34,0,6.04-4.22,6.04-9.43,0,0,0-.01,0-.02,2.75,2.34,6.26,3.56,8.66,2.82,2.69-.84,3.05-3.87,1.03-7.06,2.42.3,4.9.43,7.43.38.05,0,.1,0,.16,0l-.04.07c23.44-.47,42.63-17.85,42.12-37.58-.07-2.51-.42-4.96-1.03-7.33-1.57-6.06-2.26-12.17-2.29-18.22,0-.68-.02-1.36-.05-2.05l-.1.17c-.03-.61-.28-4.01-.33-4.62.1.54.2,1.09.53,1.54,1.13,1.5,5.57-.07,7.07-.52,2.46-.75,4.79-1.84,6.91-3.21,4.65-3.02,8.07-7.22,9.81-12.23,1.39-4,1.79-8.24,1.72-12.44Z"/>
        <g>
          <g>
            <circle class="cls-15" cx="90.42" cy="215.47" r="4.43"/>
            <path class="cls-15" d="M79.92,216.27c-.58-.29-3.33-1.26-4.11-1.44l-1.21-.21c-.48-.06-.98-.1-1.5-.11-3.68-.06-6.68,1.27-6.71,2.97-.03,1.7,2.93,3.14,6.6,3.2.34,0,.67,0,1-.02.37.16.75.31,1.15.44,2.73.9,4.24.53,5.08.43.42-.05,1.77-.16,2.01.07,2.52,2.43,6.07,2.67,7.92.53.76-.88,1.12-2.03,1.1-3.24-.04-2.36.35-4.68,1.23-6.87.09-.22.17-.44.25-.67.53-1.23.82-2.94.75-4.81-.14-3.67-1.64-6.6-3.35-6.53-1.7.07-2.97,3.1-2.82,6.77.01.34.04.67.08.99-.14.38-.27.77-.38,1.18-.28,1.06-.42,2.09-.42,3.02l.03.35c-.17-.07-.35-.13-.52-.19-1.58-.5-3.01-1.37-3.98-2.71-.24-.32-.49-.65-.77-.97-.08-.1-.16-.21-.25-.31l-1.01-1.09c-.92-.87-2.08-1.72-3.42-2.44-4.03-2.17-8.11-2.41-9.11-.55-1.01,1.87,1.44,5.14,5.47,7.31.37.2.74.38,1.11.55.31.39.65.77,1.02,1.15,1.45,1.48,3.05,2.55,4.49,3.11l.26.07"/>
          </g>
          <g>
            <circle class="cls-15" cx="163.11" cy="215.47" r="4.43"/>
            <path class="cls-15" d="M173.61,216.27c.58-.29,3.33-1.26,4.11-1.44l1.21-.21c.48-.06.98-.1,1.5-.11,3.68-.06,6.68,1.27,6.71,2.97.03,1.7-2.93,3.14-6.6,3.2-.34,0-.67,0-1-.02-.37.16-.75.31-1.15.44-2.73.9-4.24.53-5.08.43-.42-.05-1.77-.16-2.01.07-2.52,2.43-6.07,2.67-7.92.53-.76-.88-1.12-2.03-1.1-3.24.04-2.36-.35-4.68-1.23-6.87-.09-.22-.17-.44-.25-.67-.53-1.23-.82-2.94-.75-4.81.14-3.67,1.64-6.6,3.35-6.53,1.7.07,2.97,3.1,2.82,6.77-.01.34-.04.67-.08.99.14.38.27.77.38,1.18.28,1.06.42,2.09.42,3.02l-.03.35c.17-.07.35-.13.52-.19,1.58-.5,3.01-1.37,3.98-2.71.24-.32.49-.65.77-.97.08-.1.16-.21.25-.31l1.01-1.09c.92-.87,2.08-1.72,3.42-2.44,4.03-2.17,8.11-2.41,9.11-.55,1.01,1.87-1.44,5.14-5.47,7.31-.37.2-.74.38-1.11.55-.31.39-.65.77-1.02,1.15-1.45,1.48-3.05,2.55-4.49,3.11l-.26.07"/>
          </g>
        </g>
        <g>
          <g>
            <g>
              <path class="cls-16" d="M172.85,144.63c-1.93-9.93-13.86-17.37-26.8-17.37-6.64,0-12.6,1.91-16.9,5.06-4.3-3.14-10.26-5.06-16.9-5.06-12.94,0-24.86,7.43-26.78,17.37-1.51,7.83,3.53,15.03,12.36,18.47,7.77,3.56,18.87,5.8,31.34,5.8s23.57-2.24,31.34-5.8c8.82-3.45,13.86-10.64,12.34-18.47Z"/>
              <g>
                <path class="cls-8" d="M118.18,127.35c-.05.99-2.88,1.8-6.32,1.8s-6.14-.81-6.03-1.8c.11-.98,2.94-1.77,6.32-1.77s6.08.79,6.03,1.77Z"/>
                <path class="cls-8" d="M152.46,127.35c.11.99-2.59,1.8-6.02,1.8s-6.27-.81-6.32-1.8,2.65-1.77,6.03-1.77,6.21.79,6.32,1.77Z"/>
              </g>
            </g>
            <g id="OM4Wkh">
              <path class="cls-13" d="M121.03,131.66c5.89-.09,11.79-.06,17.68.03,2.92.04,5.83.1,8.75.17,4.26.1,8.59.23,12.79,1.23,4.23,1.01,8.44,3.04,10.95,6.13.49.61.94,1.27,1.67,1.7.36.22.74.47,1.09.71,1.11.78.75,2-.58,2.43,1.21,5.07.74,10.88-3.68,14.3-3.92,3.03-10.17,3.43-15.64,1.86-5.41-1.55-10-4.75-13.75-8.25-4.24-3.96-7.67-8.71-7.43-13.57.03-.62.07-1.34-.52-1.75-.29-.2-.68-.28-1.05-.33-1.48-.22-3.01-.21-4.48.04-.54.09-1.14.25-1.4.64-.22.32-.16.7-.12,1.06.54,4.87-2.97,9.7-7.21,13.7-3.39,3.2-7.42,6.19-12.21,7.93-4.86,1.77-10.5,2.1-14.82.12-5.61-2.58-7.72-8.56-6.47-13.93.11-.49.25-1,.09-1.44-.28-.74-1.37-1.2-1.22-2.01.15-.81,1.38-1.21,2.21-1.74.94-.59,1.48-1.47,2.13-2.25,1.95-2.34,5.04-3.97,8.23-4.91,6.63-1.95,14.09-1.65,20.82-1.81,1.39-.03,2.78-.06,4.18-.08ZM139.57,132.75c-7.04-.34-13.88-.34-20.86,0,.15.17.17.22.21.24.15.06.3.12.46.17,1.87.57,3.57,1.33,4.72,2.71.28.34.58.23.95.08,2.7-1.08,5.41-1.1,8.11,0,.43.18.72.2,1.01-.14,1.07-1.26,2.62-2.01,4.35-2.56.3-.1.64-.15,1.05-.51Z"/>
            </g>
            <path class="cls-14" d="M132.54,137.49c.05,3.85-1.45,7.05-3.37,7.05s-3.43-3.21-3.38-7.05,1.56-6.68,3.37-6.68,3.33,2.95,3.38,6.68Z"/>
          </g>
          <path class="cls-10" d="M186.28,151.89c-3.33-5.17-7.49-9.83-12.29-13.84,2.21,1.54,5.69,1.06,8.45-.94.06.05.12.1.19.15,2.68,1.88,7.18.82,10.03-2.36,2.84-3.17,2.97-7.23.3-9.08-.54-.37-1.14-.62-1.8-.77-.12-.03-.24-.06-.36-.08-10.53-1.86-21.3-2-31.78-.41l-7.48,1.14c-7.15-2.35-14.85-3.62-22.87-3.58-7.8.04-15.28,1.3-22.22,3.57l-7.41-1.13c-10.48-1.59-21.24-1.45-31.78.41h0c-.12.02-.25.05-.36.08-.65.14-1.26.39-1.8.77-2.67,1.85-2.54,5.91.3,9.08,2.86,3.18,7.36,4.24,10.03,2.36.07-.05.12-.1.19-.15,2.75,2.01,6.21,2.47,8.42.93-4.8,4.02-8.96,8.68-12.29,13.87"/>
        </g>
        <path class="cls-10" d="M146.93,237.66c.45.43.87.89,1.26,1.37,2.83,3.55,2.7,7.18-.28,8.11-2.4.75-5.9-.47-8.66-2.82,0,0,0,.01,0,.02,0,5.21-2.71,9.43-6.04,9.43-1.62,0-3.09-1-4.18-2.63-1.09,1.62-2.56,2.63-4.18,2.63-3.34,0-6.04-4.22-6.04-9.43,0,0,0-.01,0-.02-2.75,2.34-6.26,3.56-8.66,2.82-2.99-.93-3.11-4.56-.28-8.11.37-.46.77-.9,1.2-1.31"/>
        <g>
          <g>
            <path class="cls-7" d="M42.55,115.27c-.37-1.97-1.69-3.93-3.06-5.22-1.04-.98-2.89-1.59-3.44-2.66,1.17-.38,2.38.2,3.32,1.07,1.75-1.97-4.98-6.47-1.67-6.62,2.67-.12,4.34,5.5,5.2,7.24.97-3.21-.74-7.14.11-10.58.92-3.72,2.7-6.22,5.42-8.66-.02.92.3,1.63.51,2.51,3.76-6.33,9.32-12.94,15.56-16.87.11.65-.37,4.67-.28,5.28,1.99-4.88,5.6-7.83,10.1-10.47,2.21-1.3,4.01-2.99,6.19-4.37s4.63-3.85,6.04-6.01c.13.39.62,2.47.74,2.91,3.1-3.56,8.44-8.39,12.84-10.04-.22.69-.86,2.75-1.47,3.46,1.42,1.3,4.61-4.52,6.52-5.41,2.5-1.16,6.12-2.35,8.57-.4,5.48,4.34-2.51,13.06-7.5,12.92.69.74,1.84.99,2.84,1.15-.55,2.27-3.71,4.19-5.52,5.59-2.33,1.81-4.71,3.76-7.04,5.58,3.39.03.53,2.19-.78,3.08-2.69,1.82-6.35,5.13-9.07,6.91.47.28,3.47-.33,4.23-.1-1.41,1.5-6.7,6.92-9.27,9.27-3.19,2.91-9.61,2.99-11.88,6.45,2.34,1.09,6.28-.75,8.53-1.27-1.26,3.83-8.85,7.42-12.35,8.92-2.52,1.08-5.11,1.66-7.8,1.91-2.14.2-4.96-.64-6.82.5,2.91,1.1,4.2,2.95,7.4,3-2.99,3.03-4.69,3.34-8,1.39s-4.75,1.1-8.19-.47"/>
            <path class="cls-1" d="M43.03,115.14c-.39-1.78-1.31-3.38-2.52-4.74-.52-.59-1.09-1.08-1.75-1.5-.8-.51-1.77-.92-2.28-1.75l-.3.73c1.11-.26,2.02.24,2.84.95.19.16.53.22.71,0,.73-.93.39-1.99-.17-2.93-.36-.62-.81-1.18-1.24-1.75-.24-.33-1.01-1.08-1-1.51.01-.51.9-.26,1.32-.01.76.45,1.27,1.29,1.7,2.03.86,1.5,1.39,3.14,2.13,4.69.19.4.81.27.91-.12.94-3.5-.71-7.08.11-10.58s2.75-6.13,5.29-8.44l-.85-.35c.04.92.29,1.75.53,2.64.11.42.7.48.91.12,3.88-6.49,8.96-12.58,15.38-16.69l-.75-.43c.2,1.75-.43,3.53-.28,5.28.05.58.76.65.98.13,1-2.38,2.48-4.47,4.37-6.23s4.1-3.02,6.26-4.42c1.18-.76,2.28-1.64,3.4-2.48,1.05-.78,2.17-1.45,3.2-2.24,1.94-1.49,3.67-3.32,5.04-5.35l-.91-.12c.3.95.48,1.94.74,2.91.09.35.58.51.84.22,3.44-3.92,7.69-7.99,12.62-9.91l-.62-.62c-.37,1.13-.69,2.38-1.42,3.34-.18.23-.01.54.18.68,1.7,1.31,4.13-2.5,4.96-3.47.99-1.15,1.8-1.88,3.22-2.43,1.93-.75,4.36-1.39,6.3-.32,6.31,3.5-1.81,12.42-6.64,12.4-.42,0-.67.55-.35.85.86.8,1.92,1.09,3.06,1.28l-.35-.62c-.69,2.37-3.33,3.8-5.17,5.2-2.45,1.87-4.83,3.84-7.25,5.74-.36.29-.04.84.35.85.17,0,.98-.03,1.09.21.05.1-.35.5-.4.56-.29.33-.65.61-1,.87-.91.7-1.88,1.32-2.79,2.03-2.33,1.8-4.55,3.76-7,5.4-.38.25-.28.76.12.91,1.3.51,2.88-.39,4.23-.1l-.22-.84c-2.95,3.14-5.96,6.33-9.18,9.19-3.47,3.07-9.27,2.65-12.05,6.63-.2.29.03.62.3.73,2.83,1.16,6.06-.6,8.8-1.27l-.62-.62c-.76,2.09-2.88,3.59-4.67,4.76-1.96,1.28-4.06,2.34-6.19,3.31-2.74,1.24-5.59,2.1-8.59,2.38-2.43.23-5.03-.64-7.29.59-.41.22-.25.77.12.91,2.62,1.04,4.6,2.9,7.54,3.02l-.35-.85c-1.13,1.12-2.49,2.48-4.21,2.47-1.57-.01-2.74-1.1-4.14-1.6-1.07-.38-2.12-.3-3.21-.04-1.5.37-2.66.59-4.14-.03-.59-.25-.85.72-.27.96,1.41.59,2.71.54,4.16.17.65-.17,1.3-.37,1.98-.35,1.07.03,1.89.62,2.81,1.08,1.17.58,2.45,1,3.76.71,1.59-.35,2.85-1.56,3.97-2.66.32-.31.07-.84-.35-.85-2.77-.11-4.79-2-7.27-2.98l.12.91c1.4-.76,3.05-.53,4.57-.44s2.9-.05,4.35-.29c2.72-.46,5.26-1.42,7.75-2.59,2.27-1.06,4.5-2.25,6.53-3.72,1.64-1.19,3.3-2.62,4.01-4.58.14-.37-.27-.7-.62-.62-2.55.63-5.64,2.35-8.27,1.27l.3.73c1.41-2.02,4.03-2.75,6.24-3.54s4.16-1.53,5.83-3.06c3.12-2.87,6.1-5.94,9.01-9.03.24-.26.16-.75-.22-.84-.68-.15-1.39-.04-2.07.02-.62.06-1.56.31-2.16.08l.12.91c3.31-2.21,6.28-4.89,9.5-7.22.75-.54,1.97-1.32,2.16-2.31.23-1.21-1.2-1.37-2.06-1.4l.35.85c2.69-2.11,5.31-4.32,8.07-6.34,1.81-1.32,3.96-2.78,4.61-5.04.07-.24-.08-.57-.35-.62-.95-.16-1.89-.35-2.62-1.02l-.35.85c4.44.01,9.25-4.7,9.8-9.01.29-2.31-.95-4.52-3.09-5.47-2.51-1.11-6.36-.24-8.53,1.34-1.09.79-1.91,1.95-2.77,2.97-.41.48-2,2.7-2.74,2.13l.18.68c.77-1.02,1.13-2.38,1.52-3.58.11-.34-.26-.75-.62-.62-5.1,1.99-9.5,6.12-13.06,10.17l.84.22c-.26-.96-.45-1.95-.74-2.91-.13-.42-.67-.48-.91-.12-1.53,2.29-3.57,4.3-5.86,5.83-2.43,1.62-4.7,3.43-7.18,4.97-4.07,2.52-7.46,5.7-9.33,10.17l.98.13c-.15-1.75.48-3.53.28-5.28-.04-.35-.4-.66-.75-.43-6.56,4.2-11.76,10.41-15.74,17.05l.91.12c-.21-.8-.46-1.54-.49-2.37-.02-.44-.53-.65-.85-.35-2.47,2.25-4.39,4.87-5.34,8.1-1.11,3.78.69,7.62-.32,11.36l.91-.12c-.86-1.8-1.43-3.73-2.57-5.4-.79-1.16-2.25-2.63-3.81-1.95-2.72,1.19,3.34,5,2.07,6.63h.71c-1.12-.97-2.33-1.55-3.81-1.2-.31.07-.46.47-.3.73.77,1.24,2.21,1.7,3.3,2.59,1.57,1.28,2.72,3.2,3.15,5.17.14.63,1.1.36.96-.27h0Z"/>
          </g>
          <g>
            <path class="cls-12" d="M29.19,136.54c.42-6.17,4.81-11.45,8.67-15.93,21.22-24.58,45.53-46.41,71.58-65.81-5.06,3.77-9.67,8.45-14.39,12.64-4.88,4.33-9.73,8.68-14.53,13.1-9.57,8.82-18.91,17.9-27.75,27.45-4.23,4.57-8.34,9.25-12.31,14.06-1.98,2.4-3.92,4.84-5.82,7.31-1.75,2.27-3.4,5.29-5.45,7.16Z"/>
            <path class="cls-10" d="M32.92,126.91c-.15,3.36-1.6,7-3.73,9.64"/>
          </g>
        </g>
        <g>
          <path class="cls-12" d="M256.85,113.65c-6.32,3.25-10.77,6.85-13.8,9.74-6.33,6.05-7.72,10.22-13.96,15.89-4.93,4.49-9.94,7.23-13.7,8.91-1.34-2.2-2.73-4.41-4.18-6.63-12.77-19.54-27.31-35.61-42.01-48.82,3.07-1.5,7.85-4.13,12.87-8.43,5.96-5.09,7.8-8.7,13.53-14.39,3.09-3.06,7.97-7.4,15.06-11.72,14.42,13.52,28.69,29.55,41.63,48.54,1.57,2.3,3.09,4.61,4.56,6.9Z"/>
          <path class="cls-12" d="M257.68,109.84c-5.98,3.84-10.07,7.85-12.81,11.02-5.72,6.62-6.71,10.91-12.37,17.15-4.48,4.94-9.2,8.14-12.79,10.18-1.55-2.07-3.14-4.13-4.8-6.2-14.58-18.23-30.59-32.83-46.49-44.57,2.92-1.79,7.41-4.87,12.01-9.63,5.44-5.64,6.93-9.41,12.09-15.61,2.78-3.34,7.23-8.13,13.87-13.11,15.65,12.08,31.39,26.67,46.09,44.34,1.78,2.14,3.52,4.29,5.2,6.43Z"/>
          <g>
            <path class="cls-12" d="M258.13,105.4c-5.56,4.42-9.22,8.82-11.63,12.26-5.02,7.17-5.57,11.53-10.57,18.31-3.96,5.37-8.33,9.03-11.69,11.42-1.75-1.9-3.55-3.79-5.4-5.68-16.35-16.66-33.76-29.57-50.76-39.64,2.72-2.07,6.88-5.59,10.97-10.79,4.84-6.16,5.94-10.06,10.45-16.76,2.43-3.61,6.37-8.82,12.47-14.45,16.79,10.43,33.92,23.35,50.34,39.44,1.99,1.95,3.93,3.91,5.82,5.88Z"/>
            <g>
              <path class="cls-11" d="M187.9,106.68c3.3-3.27,5.38-6.27,7.15-8.86.52-.76.56-.85,5.06-8.12,2.37-3.83,3.55-5.75,3.83-6.15,3.78-5.64,6.95-8.99,7.65-9.72"/>
              <path class="cls-11" d="M190.62,108.58c3.3-3.27,5.38-6.27,7.15-8.86.52-.76.56-.85,5.06-8.12,2.37-3.83,3.55-5.75,3.83-6.15,3.78-5.64,6.95-8.99,7.65-9.72"/>
              <path class="cls-11" d="M193.43,110.56c3.3-3.27,5.38-6.27,7.15-8.86.52-.76.56-.85,5.06-8.12,2.37-3.83,3.55-5.75,3.83-6.15,3.78-5.64,6.95-8.99,7.65-9.72"/>
              <path class="cls-11" d="M196.16,112.63c3.3-3.27,5.38-6.27,7.15-8.86.52-.76.56-.85,5.06-8.12,2.37-3.83,3.55-5.75,3.83-6.15,3.78-5.64,6.95-8.99,7.65-9.72"/>
              <path class="cls-11" d="M179.6,101.09c3.3-3.27,5.38-6.27,7.15-8.86.52-.76.56-.85,5.06-8.12,2.37-3.83,3.55-5.75,3.83-6.15,3.78-5.64,6.95-8.99,7.65-9.72"/>
              <path class="cls-11" d="M182.5,102.96c3.3-3.27,5.38-6.27,7.15-8.86.52-.76.56-.85,5.06-8.12,2.37-3.83,3.55-5.75,3.83-6.15,3.78-5.64,6.95-8.99,7.65-9.72"/>
              <path class="cls-11" d="M185.35,104.89c3.3-3.27,5.38-6.27,7.15-8.86.52-.76.56-.85,5.06-8.12,2.37-3.83,3.55-5.75,3.83-6.15,3.78-5.64,6.95-8.99,7.65-9.72"/>
              <path class="cls-11" d="M199.14,114.68c3.3-3.27,5.38-6.27,7.15-8.86.52-.76.56-.85,5.06-8.12,2.37-3.83,3.55-5.75,3.83-6.15,3.78-5.64,6.95-8.99,7.65-9.72"/>
              <path class="cls-11" d="M201.73,116.93c3.3-3.27,5.38-6.27,7.15-8.86.52-.76.56-.85,5.06-8.12,2.37-3.83,3.55-5.75,3.83-6.15,3.78-5.64,6.95-8.99,7.65-9.72"/>
              <path class="cls-11" d="M204.27,119c3.3-3.27,5.38-6.27,7.15-8.86.52-.76.56-.85,5.06-8.12,2.37-3.83,3.55-5.75,3.83-6.15,3.78-5.64,6.95-8.99,7.65-9.72"/>
              <path class="cls-11" d="M206.79,121.14c3.3-3.27,5.38-6.27,7.15-8.86.52-.76.56-.85,5.06-8.12,2.37-3.83,3.55-5.75,3.83-6.15,3.78-5.64,6.95-8.99,7.65-9.72"/>
              <path class="cls-11" d="M209.39,123.38c3.3-3.27,5.38-6.27,7.15-8.86.52-.76.56-.85,5.06-8.12,2.37-3.83,3.55-5.75,3.83-6.15,3.78-5.64,6.95-8.99,7.65-9.72"/>
              <path class="cls-11" d="M211.97,125.64c3.3-3.27,5.38-6.27,7.15-8.86.52-.76.56-.85,5.06-8.12,2.37-3.83,3.55-5.75,3.83-6.15,3.78-5.64,6.95-8.99,7.65-9.72"/>
              <path class="cls-11" d="M214.63,128.09c3.3-3.27,5.38-6.27,7.15-8.86.52-.76.56-.85,5.06-8.12,2.37-3.83,3.55-5.75,3.83-6.15,3.78-5.64,6.95-8.99,7.65-9.72"/>
              <path class="cls-11" d="M217.14,130.44c3.3-3.27,5.38-6.27,7.15-8.86.52-.76.56-.85,5.06-8.12,2.37-3.83,3.55-5.75,3.83-6.15,3.78-5.64,6.95-8.99,7.65-9.72"/>
            </g>
          </g>
        </g>
        <path class="cls-12" d="M121.65,71.72c3.36-.71,8.62-2.26,14.18-5.88,5.21-3.39,8.62-7.27,10.63-9.94,3.37,2.5,8.35,5.6,14.9,7.86,8.83,3.05,16.58,3.23,21.41,2.95-6.26,4.94-9.05,9.26-15.39,15.73-.48.49-5.62,4.04-6.23,4.36-1.01.53-4.27,1-5.4.83-15.15-2.28-27.81-8.51-34.1-15.91Z"/>
      </g>
      <g>
        <path class="cls-6" d="M252.87,172.68c-9.46-5.63-26.43-7.79-32.45,3.89-2.49,4.83-1.91,9.85.51,14.58,2.11,4.12,5.6,8.18,9.89,10.11,2.28,1.03,4.85,1.58,7.3.8,2.8-.88,4.83-3.06,6.1-5.64,1.47-2.99-2.77-5.61-4.51-2.67-.68,1.15-1.36,2.3-2.04,3.45-1.74,2.94,2.6,5.4,4.51,2.67,2.86-4.08,2.99-9.27-.74-12.86-3.47-3.35-8.57-4.75-13.28-5-4.64-.24-9.84.79-13.1,4.35-4.56,4.97-5.12,11.53-2.66,17.64,2.48,6.14,7.44,11.53,13.13,14.88,2.91,1.71,5.58-2.8,2.67-4.51-4.01-2.36-7.52-5.89-9.86-10.06-2.28-4.07-3.18-8.69-.83-12.56.61-1,1.19-1.68,2.09-2.5.19-.17.44-.34.07-.08.16-.11.33-.23.5-.33.38-.24.78-.42,1.18-.62.53-.27-.16.03.26-.11.21-.07.41-.14.62-.21.46-.14.93-.26,1.4-.36,1.17-.25,1.2-.24,2.45-.29,1-.04,2.01,0,3.01.09.13.01.88.1.41.04.24.03.48.07.72.11.51.09,1.02.2,1.53.32.95.23,1.88.53,2.79.89-.44-.17,0,0,.18.09.2.1.4.19.6.29.41.21.82.45,1.21.7.23.15.46.31.68.48.25.18-.14-.11-.15-.12.1.09.21.17.3.26.33.31.64.64.95.97.29.31-.2-.38.1.13.11.18.23.36.33.55.05.1.31.69.18.35s.07.26.1.37.14.74.1.38.01.29.01.41c0,.26-.01.51-.04.77.06-.54-.02,0-.08.22-.07.24-.14.48-.22.72-.01.04-.15.39-.03.1s-.08.16-.1.21c-.31.57-.63,1.12-1,1.65,1.5.89,3.01,1.78,4.51,2.67.68-1.15,1.36-2.3,2.04-3.45-1.5-.89-3.01-1.78-4.51-2.67-.23.47-.48.93-.76,1.37-.13.2-.27.4-.41.59.31-.41-.09.08-.21.21-.15.15-.31.29-.45.44-.4.42.18-.07-.16.15-.16.1-.32.21-.49.3-.1.06-.69.31-.36.19s-.2.05-.29.08c-.18.04-.35.08-.53.12-.12.03.45,0-.05,0-.21,0-.42.01-.64,0-.18,0-.37-.03-.55-.05.45.05.2.03-.07-.04-.41-.1-.81-.23-1.22-.36-.51-.16.04.03-.1-.03-.22-.1-.44-.21-.65-.32-.41-.22-.81-.46-1.2-.72-.18-.12-.37-.25-.55-.38-.08-.06-.58-.45-.35-.26s-.26-.23-.34-.29c-.2-.18-.41-.36-.6-.55-.72-.68-1.4-1.42-2.02-2.19-.15-.19-.3-.38-.45-.57-.25-.33.21.3-.03-.04-.07-.1-.14-.2-.21-.3-.29-.44-.58-.88-.85-1.33-.5-.85-.95-1.74-1.33-2.66.17.4-.04-.1-.09-.24-.08-.22-.15-.43-.22-.65-.14-.46-.27-.93-.37-1.4-.05-.25-.1-.5-.14-.75-.08-.49,0,.31-.02-.18-.03-.45-.05-.89-.03-1.34,0-.2.03-.4.04-.6.01-.14-.1.39.03-.11.14-.55.28-1.09.48-1.62,1.53-4.2,5.64-6.39,10.02-6.74,5.51-.44,11.11,1.01,15.68,3.73,2.9,1.73,5.57-2.78,2.67-4.51h0Z"/>
        <circle class="cls-2" cx="246.71" cy="145.24" r="4.64"/>
        <path class="cls-2" d="M30.29,209.7c-4.56,0-8.18-4.48-8.57-10.38-5.9-.39-10.38-4.01-10.38-8.57s4.48-8.18,10.38-8.57c.39-5.9,4.01-10.38,8.57-10.38s8.18,4.48,8.57,10.38c5.9.39,10.38,4.01,10.38,8.57s-4.48,8.18-10.38,8.57c-.39,5.9-4.01,10.38-8.57,10.38ZM25.85,195.19l-.16,2.28c-.02.26-.03.53-.03.79,0,4.04,2.12,7.46,4.62,7.46s4.62-3.42,4.62-7.46c0-.27-.01-.53-.03-.79l-.16-2.28,2.28.16c.26.02.53.03.8.03,4.04,0,7.46-2.12,7.46-4.62s-3.42-4.62-7.46-4.62c-.27,0-.53.01-.8.03l-2.28.16.16-2.28c.02-.26.03-.52.03-.79,0-4.04-2.12-7.46-4.62-7.46s-4.62,3.42-4.62,7.46c0,.27.01.53.03.79l.16,2.28-2.28-.16c-.26-.02-.53-.03-.79-.03-4.04,0-7.46,2.12-7.46,4.62s3.42,4.62,7.46,4.62c.27,0,.53-.01.79-.03l2.28-.16Z"/>
        <path class="cls-2" d="M70.43,10.99c-5.11,0-9.26,4.14-9.26,9.26s4.14,9.26,9.26,9.26,9.26-4.14,9.26-9.26-4.14-9.26-9.26-9.26ZM76.7,20.58c-.18,3.47-3.14,6.13-6.61,5.95s-6.13-3.14-5.95-6.61c.18-3.47,3.14-6.13,6.61-5.95s6.13,3.14,5.95,6.61Z"/>
        <path class="cls-4" d="M37.56,58.38l-4.5,13.83c-.62,1.91,1.57,3.5,3.19,2.32l11.76-8.54c1.14-.83,1.14-2.53,0-3.36l-7.27-5.28c-1.14-.83-2.76-.3-3.19,1.04Z"/>
        <path class="cls-4" d="M167.51,45.42c-5.07,5.07-14.08,4.11-21.08-2.02-7,6.13-16.01,7.08-21.08,2.02-5.07-5.07-4.11-14.08,2.02-21.08-6.13-6.99-7.08-16.01-2.02-21.08,5.07-5.07,14.08-4.12,21.08,2.01,7-6.13,16.01-7.08,21.08-2.02,5.07,5.07,4.11,14.08-2.02,21.08,6.13,6.99,7.08,16.01,2.02,21.08ZM146.44,34.22l2.36,2.71c.27.31.55.62.85.92,4.5,4.5,10.65,5.94,13.44,3.15,2.79-2.79,1.34-8.94-3.15-13.44-.3-.3-.6-.58-.91-.85l-2.72-2.36,2.71-2.37c.31-.27.62-.56.92-.85,4.5-4.5,5.94-10.65,3.15-13.44s-8.94-1.34-13.44,3.15c-.3.3-.58.6-.85.92l-2.37,2.71-2.36-2.72c-.27-.31-.55-.61-.85-.91-4.5-4.5-10.65-5.94-13.44-3.15s-1.34,8.94,3.15,13.44c.3.3.6.58.92.85l2.71,2.36-2.71,2.36c-.31.27-.62.55-.92.85-4.5,4.5-5.94,10.65-3.15,13.44,2.79,2.79,8.94,1.34,13.44-3.15.3-.3.58-.6.85-.91l2.36-2.71Z"/>
        <circle class="cls-6" cx="200.53" cy="20.54" r="2.76"/>
        <path class="cls-6" d="M104.59,91.07c-3.1,0-5.62,2.52-5.62,5.62s2.52,5.62,5.62,5.62,5.62-2.52,5.62-5.62-2.52-5.62-5.62-5.62ZM108.4,96.89c-.11,2.1-1.91,3.72-4.01,3.61-2.1-.11-3.72-1.91-3.61-4.01.11-2.1,1.91-3.72,4.01-3.61s3.72,1.91,3.61,4.01Z"/>
        <path class="cls-2" d="M152.07,108.51c1.78.06,4.35-.97,4.29-3.09-.03-.88-.5-1.54-1.22-2.03-.62-.42-1.43-.72-2.19-.66-.4.03-.81.16-1.1.46-.33.34-.44.81-.42,1.28.03.54.83.58.85.02l.02-.65c.02-.55-.79-.56-.85-.02-.09.8.3,1.55,1.11,1.76.75.2,1.59,0,2.27-.33s1.33-.88,1.52-1.64c.26-1.06-.18-2.04-1.01-2.71s-1.96-1.05-3.03-1.08c-.55-.01-.57.83-.02.85.75.02,1.53.25,2.18.65s1.13.98,1.1,1.71c0,.19-.04.33-.1.52-.01.04-.04.08,0,.02-.01.03-.03.06-.05.09-.04.06-.08.12-.12.18-.05.08.02-.02-.03.04-.02.03-.05.05-.07.08-.05.06-.11.11-.17.16-.15.13-.15.13-.32.23-.14.08-.28.16-.43.22-.02,0-.13.06-.06.03-.04.01-.07.03-.11.04-.08.03-.16.05-.24.07-.15.04-.31.07-.46.09.08,0,0,0-.03,0-.04,0-.07,0-.11,0-.08,0-.15,0-.23,0-.04,0-.09,0-.13-.01-.05,0,.03,0,.03,0-.02,0-.04,0-.06-.01-.07-.02-.14-.04-.21-.06-.07-.02.06.04-.02-.01-.03-.02-.06-.03-.09-.05-.02-.01-.1-.07-.05-.04s-.03-.03-.04-.04-.08-.09-.04-.05-.02-.04-.03-.06c-.02-.04-.04-.07-.05-.11.03.08,0,0,0-.04,0-.04-.02-.08-.02-.12,0,0,0-.07,0-.02s0-.03,0-.04c0-.1,0-.21.01-.31l-.85-.02-.02.65.85.02c0-.08,0-.17,0-.25,0-.04,0-.08.01-.12-.01.08,0-.02.01-.05,0-.03.02-.06.03-.1.02-.09-.02.02.01-.03.02-.03.03-.05.05-.08.01-.02.07-.1.04-.05s.02-.02.04-.03c.02-.02.04-.04.07-.06.02-.01-.06.03,0,0,.03-.02.06-.04.09-.05.03-.01.05-.03.08-.04-.07.03-.03.01.01,0,.07-.02.13-.03.2-.04.08-.02,0,0,.02,0,.04,0,.08,0,.12,0,.08,0,.15,0,.23,0,.04,0,.07,0,.11.01.02,0,.12.02.07,0s.05.01.07.01c.04,0,.09.02.13.03.16.04.31.09.46.15.04.01.07.03.11.05.06.03-.05-.03,0,0,.02,0,.04.02.05.03.08.04.15.08.22.12.14.08.27.17.4.27-.05-.04.01.01.03.03.03.02.06.05.08.08.06.05.11.11.16.17.03.03.05.06.08.1.05.06-.03-.04.02.02.04.06.08.12.11.19.01.03.03.06.04.09,0,.02-.02-.06,0,.02.02.09.05.18.06.27.11.71-.3,1.35-.89,1.74-.75.49-1.65.73-2.51.7-.55-.02-.57.83-.02.85h0Z"/>
        <path class="cls-2" d="M180.73,43.23c1.68,4.43,6.81,9.69,11.97,7.38,2.13-.96,3.28-2.8,3.73-5.05.39-1.95.3-4.25-.62-6.05-.49-.95-1.21-1.83-2.24-2.22-1.18-.45-2.45-.26-3.56.27-1.3.61-.57,2.63.8,2.11.54-.2,1.07-.41,1.61-.61,1.37-.52.57-2.51-.8-2.11-2.06.61-3.49,2.32-3.19,4.53.27,2.06,1.61,3.89,3.13,5.24s3.53,2.37,5.57,2.04c2.87-.46,4.81-2.51,5.62-5.23s.58-5.87-.44-8.52c-.52-1.35-2.63-.55-2.11.8.72,1.87.95,3.99.63,6.02s-1.26,3.78-3.08,4.45c-.47.17-.85.25-1.37.28-.11,0-.24,0-.05,0-.09,0-.17-.01-.26-.02-.19-.02-.38-.07-.56-.11-.25-.05.06.03-.12-.03-.09-.03-.18-.06-.26-.1-.19-.08-.38-.16-.57-.25-.46-.23-.47-.24-.9-.56-.35-.26-.68-.53-.99-.83-.04-.04-.27-.27-.13-.12-.07-.08-.14-.15-.21-.23-.15-.17-.29-.34-.43-.52-.26-.33-.49-.68-.7-1.05.1.18,0,0-.04-.08-.04-.09-.08-.17-.12-.26-.08-.18-.16-.37-.22-.56-.04-.11-.07-.23-.1-.34-.04-.13.02.07.02.08-.01-.06-.02-.11-.03-.17-.03-.19-.04-.39-.06-.58-.01-.18-.03.18,0-.07.01-.09.02-.18.04-.27,0-.05.08-.31.03-.16s.05-.11.07-.15.15-.29.07-.15.07-.1.11-.14c.07-.09.14-.17.22-.25-.16.16,0,0,.09-.05.09-.06.18-.12.27-.18.02-.01.16-.09.04-.02s.07-.03.09-.04c.26-.11.51-.21.78-.29-.27-.7-.54-1.4-.8-2.11-.54.2-1.07.41-1.61.61l.8,2.11c.2-.1.41-.18.62-.26.1-.03.2-.06.3-.09-.21.05.05,0,.13-.01.09-.01.18-.01.27-.03.25-.03-.08-.03.09,0,.08,0,.16.02.24.03.05,0,.32.08.17.03s.08.03.12.05c.07.03.14.07.21.1.05.02-.15-.12.02.01.07.06.15.11.22.17.06.05.12.11.17.16-.14-.14-.06-.07.01.03.11.15.21.29.31.45.13.19,0-.02.03.04.05.09.09.19.13.28.08.18.15.37.21.56.03.09.06.18.08.27.01.04.08.31.05.18s.03.15.04.19c.02.11.04.23.06.35.06.42.09.85.09,1.28,0,.1,0,.21,0,.31,0,.18,0-.16,0,.02,0,.05,0,.1,0,.16-.02.23-.04.45-.07.67-.06.42-.14.84-.26,1.25.05-.18-.01.04-.04.1-.03.09-.07.19-.1.28-.08.19-.16.39-.25.57-.05.1-.1.19-.15.29-.1.19.08-.11-.04.07-.11.16-.22.31-.35.46-.06.07-.12.13-.18.19-.04.04.14-.1-.04.03-.2.15-.39.29-.59.42-1.64,1-3.61.64-5.18-.41-1.97-1.33-3.47-3.31-4.28-5.45-.51-1.36-2.62-.55-2.11.8h0Z"/>
        <path class="cls-4" d="M231.86,63.21l8.82-3.7c1.22-.51,1.07-2.28-.21-2.59l-9.31-2.19c-.9-.21-1.75.52-1.67,1.44l.49,5.89c.08.92,1.03,1.5,1.89,1.15Z"/>
        <ellipse class="cls-4" cx="15.23" cy="155.67" rx="8.4" ry="8.56"/>
        <path class="cls-2" d="M24,99.95c.91-4.91-.83-12.48-6.76-13.22-2.45-.3-4.5.73-6.13,2.51-1.42,1.55-2.6,3.67-2.75,5.8-.08,1.13.09,2.31.8,3.24.81,1.05,2.06,1.58,3.36,1.71,1.5.16,1.96-2.06.43-2.34-.6-.11-1.19-.22-1.79-.33-1.52-.28-1.89,1.96-.43,2.34,2.19.58,4.42-.18,5.36-2.33.88-2,.68-4.4.04-6.44s-1.88-4.07-3.91-4.9c-2.84-1.16-5.72-.37-7.93,1.64-2.23,2.02-3.74,4.98-4.28,7.93-.27,1.51,2.07,1.94,2.34.43.38-2.08,1.33-4.13,2.74-5.78,1.38-1.61,3.2-2.72,5.22-2.33.52.1.9.24,1.39.5.1.05.21.14.05.02.07.05.15.11.22.16.16.13.3.27.45.41.2.18-.04-.06.09.09.06.08.13.15.19.23.13.17.26.36.37.54.29.46.29.47.51,1,.17.42.32.85.44,1.3.02.06.1.39.05.18.02.11.04.22.06.32.04.23.08.47.1.7.05.44.07.88.06,1.33,0-.21,0,0,0,.09,0,.1-.02.2-.03.3-.03.21-.06.42-.11.63-.03.12-.06.24-.1.37-.04.14.03-.08.03-.08-.02.06-.04.11-.06.17-.08.19-.17.37-.27.56-.09.17.13-.14-.04.06-.06.08-.12.15-.18.23-.03.04-.24.24-.12.13s-.1.07-.14.1-.29.18-.15.1-.12.05-.17.07c-.11.04-.22.07-.33.1.24-.06,0,0-.11,0-.11,0-.23.01-.34.02-.02,0-.19,0-.05,0s-.08,0-.1-.01c-.29-.04-.57-.09-.86-.17-.14.78-.29,1.56-.43,2.34.6.11,1.19.22,1.79.33.14-.78.29-1.56.43-2.34-.24-.02-.47-.06-.7-.11-.11-.02-.21-.05-.32-.08.22.07-.05-.02-.13-.06-.09-.04-.17-.09-.26-.12-.24-.11.06.07-.09-.05-.07-.05-.14-.1-.2-.16-.04-.04-.24-.25-.14-.13s-.05-.08-.08-.11c-.05-.07-.09-.14-.13-.21-.03-.05.07.19,0-.02-.03-.09-.07-.18-.1-.27-.03-.08-.05-.16-.07-.24.05.2.02.09,0-.04-.02-.19-.03-.38-.04-.57-.01-.24,0,.02,0-.05.01-.11.02-.22.03-.33.03-.21.07-.42.12-.62.02-.1.05-.2.08-.29.01-.05.1-.32.06-.19s.05-.15.07-.19c.04-.12.09-.23.14-.34.18-.42.38-.82.62-1.21.06-.09.11-.19.17-.28.1-.16-.1.14.01-.02.03-.05.06-.09.09-.14.14-.19.28-.38.43-.57.28-.35.59-.68.92-.99-.14.13.04-.03.09-.07.08-.07.16-.13.24-.19.17-.13.35-.26.54-.38.1-.06.2-.12.3-.18.2-.11-.13.05.07-.04.19-.08.37-.16.57-.22.09-.03.17-.05.26-.08.06-.02-.18.02.05,0,.26-.02.51-.05.77-.05,2.03,0,3.61,1.4,4.45,3.21,1.05,2.28,1.32,4.89.87,7.27-.28,1.51,2.06,1.94,2.34.43h0Z"/>
        <circle class="cls-6" cx="40.55" cy="34.15" r="2.76"/>
        <path class="cls-6" d="M12.13,120.37c.42-.97,1.7-1.33,2.99-.88.62-1.22,1.8-1.84,2.77-1.43s1.33,1.7.88,2.99c1.22.62,1.84,1.8,1.43,2.77s-1.7,1.33-2.99.88c-.62,1.22-1.8,1.84-2.77,1.43s-1.33-1.7-.88-2.99c-1.22-.62-1.84-1.8-1.43-2.77ZM15.62,120.75l-.47-.24c-.05-.03-.11-.05-.17-.08-.86-.37-1.78-.23-2.01.3s.31,1.3,1.17,1.66c.06.02.11.05.17.07l.5.17-.24.47c-.03.05-.05.11-.08.17-.37.86-.23,1.78.3,2.01s1.3-.31,1.66-1.17c.02-.06.05-.11.07-.17l.17-.5.47.24c.05.03.11.05.17.08.86.37,1.78.23,2.01-.3s-.31-1.3-1.17-1.66c-.06-.02-.11-.05-.17-.07l-.5-.17.24-.47c.03-.05.05-.11.08-.17.37-.86.23-1.78-.3-2.01s-1.3.31-1.66,1.17c-.02.06-.05.11-.07.17l-.17.5Z"/>
        <path class="cls-4" d="M104.05,18.12l-3.33-5.24c-.46-.72-1.58-.44-1.63.42l-.38,6.19c-.04.6.52,1.06,1.1.91l3.71-.96c.58-.15.85-.82.53-1.33Z"/>
        <path class="cls-6" d="M77.35,42.48c-1.78,0-3.23,1.45-3.23,3.23s1.45,3.23,3.23,3.23,3.23-1.45,3.23-3.23-1.45-3.23-3.23-3.23ZM79.55,45.82c-.06,1.21-1.1,2.14-2.31,2.08s-2.14-1.1-2.08-2.31c.06-1.21,1.1-2.14,2.31-2.08,1.21.06,2.14,1.1,2.08,2.31Z"/>
      </g>
    </g>
  </g>
</svg>