<?xml version="1.0" encoding="UTF-8"?>
<svg id="Layer_2" data-name="Layer 2" xmlns="http://www.w3.org/2000/svg" viewBox="0 0 239.11 128.98">
  <defs>
    <style>
      .cls-1 {
        fill: #4582af;
      }

      .cls-1, .cls-2, .cls-3 {
        stroke-width: 0px;
      }

      .cls-2 {
        fill: #bfe2f5;
      }

      .cls-3 {
        fill: #68736b;
      }
    </style>
  </defs>
  <g id="Layer_1-2" data-name="Layer 1">
    <g>
      <g>
        <path class="cls-2" d="M119.51,55.13c-3.47-.66-8.49-1.19-13.96-2.43-25.55-5.79-45.45-18.08-65.9-33.35-7.75-5.79-11.89-9.36-21.74-18.19C10.23,8.24,5.54,17.97,3.11,27.96c-2.4,9.86-3.73,22.66-.61,32.46,3.28,10.3,13.26,13.15,23.27,13.02l1.12-.44c-.01,5.91.67,11.79,2.71,17.48,5.29,14.75,16.8,26.68,31.19,33.09,16.92,7.54,39.37,4.46,57.17,1.95.76-.11,1.26-.22,1.59-.42.33.19.83.31,1.59.42,17.79,2.51,40.25,5.6,57.17-1.95,14.39-6.42,25.91-18.34,31.19-33.09,2.04-5.69,2.72-11.57,2.71-17.48l1.12.44c10.01.13,20-2.72,23.27-13.02,3.12-9.8,1.79-22.6-.61-32.46-2.44-9.99-7.12-19.72-14.81-26.8-9.85,8.83-13.98,12.4-21.74,18.19-20.46,15.27-40.35,27.56-65.9,33.35-5.47,1.24-10.49,1.78-13.96,2.43"/>
        <path class="cls-1" d="M220.73.7c-4.96,4.45-9.92,8.91-15.12,13.09-5.62,4.51-11.46,8.76-17.4,12.83-13.25,9.08-27.39,17.07-42.7,22.09-8.18,2.69-16.75,5.1-25.42,5.13s-16.78-2.07-24.77-4.57c-14.38-4.5-27.74-11.53-40.28-19.82-11.3-7.47-22.01-15.71-32.14-24.7-1.52-1.35-3.03-2.7-4.54-4.06-.62-.56-1.54.36-.92.92,5.08,4.55,10.15,9.12,15.48,13.38s11.09,8.47,16.82,12.44c12.48,8.64,25.72,16.22,40.05,21.35,7.64,2.74,15.64,5.01,23.72,5.96,8.78,1.04,17.4-.4,25.85-2.8,15.87-4.5,30.58-11.81,44.37-20.79,11.7-7.62,22.77-16.1,33.21-25.36,1.57-1.39,3.13-2.79,4.7-4.19.62-.56-.3-1.47-.92-.92h0Z"/>
        <path class="cls-1" d="M29.35,31.49c0,6.03-.42,12.04-1.05,18.04s-1.54,12.3-1.9,18.49-.17,12.21,1.25,18.13c1.22,5.11,3.38,10.02,6.09,14.5,5.08,8.42,12.35,15.47,20.83,20.43,9.11,5.34,19.22,7.52,29.7,7.84,6.25.19,12.51-.2,18.72-.85,2.95-.31,5.9-.67,8.85-1.06,1.35-.18,2.7-.37,4.04-.55s2.8-.21,4.02-.8h-.66c1,.49,2.16.54,3.26.7,1.28.18,2.56.36,3.85.53,2.58.35,5.17.68,7.76.97,5.51.62,11.05,1.06,16.6,1.11,10.57.1,21.19-1.31,30.7-6.15,8.78-4.46,16.44-11.08,22.05-19.17,2.78-4.01,5.05-8.4,6.69-13,2.06-5.76,2.77-11.89,2.73-17.99-.04-7.01-1.04-13.96-1.82-20.91-.75-6.74-1.28-13.48-1.29-20.26,0-.84-1.3-.84-1.3,0,0,5.89.4,11.75,1.01,17.6s1.44,11.67,1.86,17.53.4,12.28-.9,18.27c-1.12,5.16-3.2,10.08-5.87,14.62-4.98,8.45-12.19,15.5-20.65,20.45-9.1,5.34-19.2,7.43-29.67,7.68s-21.26-1.12-31.78-2.6c-.52-.07-1.04-.13-1.55-.22-.42-.08-.92-.36-1.34-.38-.38-.01-.79.27-1.16.34-.7.14-1.41.22-2.12.31-2.54.36-5.08.71-7.63,1.03-5.33.67-10.68,1.21-16.05,1.44-10.45.44-21.41-.18-31.12-4.4-8.94-3.88-16.92-10.04-22.9-17.74-6.75-8.68-10.64-18.98-11-29.99-.39-11.75,2.1-23.41,2.81-35.11.18-2.94.26-5.89.27-8.84,0-.84-1.3-.84-1.3,0h0Z"/>
        <path class="cls-1" d="M220.73,1.62c9.36,8.71,14.01,20.96,16.03,33.34,1.04,6.4,1.47,13.05.53,19.5-.81,5.53-2.65,10.91-7.4,14.24s-10.86,4.15-16.56,4.09c-.84,0-.84,1.29,0,1.3,5.32.05,10.9-.63,15.61-3.27,4.97-2.77,7.75-7.43,9-12.87,1.5-6.55,1.36-13.44.53-20.07s-2.27-12.95-4.71-19.03c-2.74-6.82-6.72-13.13-12.12-18.16-.61-.57-1.53.35-.92.92h0Z"/>
        <path class="cls-1" d="M17.45.7C7.58,9.89,2.77,22.97.86,36.05c-.96,6.58-1.28,13.37-.12,19.95.98,5.54,3.17,10.64,7.93,13.91s11.23,4.24,17.08,4.18c.83,0,.84-1.31,0-1.3-5.15.05-10.55-.58-15.1-3.17-4.95-2.81-7.38-7.56-8.48-12.99-1.27-6.28-1.05-12.85-.22-19.17s2.23-12.3,4.53-18.07c2.66-6.68,6.58-12.86,11.87-17.77.61-.57-.31-1.49-.92-.92h0Z"/>
      </g>
      <g>
        <path class="cls-3" d="M229.89,11.51c-2.3-4.01-5.14-7.7-8.57-10.87-9.85,8.83-13.98,12.4-21.74,18.19-20.46,15.27-40.35,27.56-65.9,33.35-.52.12-1.03.23-1.54.33-8.07,1.67-16.4,1.67-24.48,0-.51-.11-1.02-.22-1.54-.33-25.55-5.79-45.45-18.08-65.9-33.35-7.75-5.79-11.89-9.36-21.74-18.19-3.43,3.17-6.27,6.86-8.57,10.87h0c6.05,6.72,12.61,12.95,19.63,18.64l1.03.83c0,10.18-1.04,18.04-2.2,28.18-1.18,10.33-1.77,20.84,1.8,30.8,5.29,14.75,16.8,26.68,31.19,33.09,16.92,7.54,39.37,4.46,57.17,1.95.61-.09,1.05-.18,1.37-.31.32.13.77.22,1.37.31,17.79,2.51,40.25,5.6,57.17-1.95,14.39-6.42,25.91-18.34,31.19-33.09,3.57-9.97,2.98-20.48,1.8-30.8-1.16-10.14-2.2-18-2.2-28.18l1.03-.83c7.02-5.69,13.59-11.92,19.63-18.64Z"/>
        <path class="cls-1" d="M230.45,11.18c-2.36-4.07-5.23-7.79-8.67-11-.27-.25-.65-.24-.92,0-5.08,4.55-10.15,9.12-15.48,13.38s-11.36,8.67-17.24,12.71c-12.64,8.7-26.08,16.3-40.63,21.3-7.79,2.68-15.97,4.99-24.22,5.45-8.74.49-17.21-1.23-25.55-3.71-14.73-4.38-28.43-11.41-41.24-19.81-11.56-7.57-22.51-15.96-32.85-25.13-1.57-1.39-3.13-2.79-4.7-4.19-.27-.24-.65-.25-.92,0-3.44,3.21-6.32,6.93-8.67,11-.15.26-.09.57.1.79,4.77,5.29,9.85,10.28,15.23,14.95,1.33,1.15,2.68,2.29,4.04,3.4.29.24.58.47.87.71.09.07.43.27.47.38-.24.06-.29.24-.15.55,0,.32,0,.64,0,.96-.05,3.48-.22,6.95-.5,10.42-1.12,13.84-4.44,28.05-1.3,41.85,2.59,11.4,9.57,21.79,18.43,29.29,4.37,3.71,9.26,6.81,14.5,9.14s11.3,3.73,17.22,4.36c12.47,1.33,25.07-.21,37.42-1.92,1.35-.19,2.88-.64,4.23-.64s2.88.45,4.23.64c3.02.42,6.04.82,9.07,1.18,6.4.74,12.84,1.27,19.28,1.23s12.37-.58,18.35-2.11c5.67-1.45,11.02-3.9,15.94-7.06,9.58-6.16,17.43-15.04,22.02-25.49,2.7-6.15,4-12.64,4.18-19.34.19-7.18-.78-14.31-1.59-21.43-.78-6.85-1.42-13.7-1.49-20.6,0-.85-.28-.94.32-1.42.29-.24.58-.47.87-.71,1.42-1.16,2.83-2.34,4.22-3.55,2.66-2.31,5.24-4.7,7.75-7.17s4.94-5.02,7.3-7.63c.56-.62-.36-1.54-.92-.92-4.72,5.23-9.74,10.18-15.06,14.8-1.21,1.05-2.44,2.09-3.68,3.11-.55.45-1.65,1.06-2.02,1.69-.32.55-.08,1.65-.08,2.27.01.79.03,1.57.05,2.36.05,1.81.14,3.62.26,5.42.91,13.77,4.39,27.85,2.03,41.64-2.02,11.82-8.81,22.62-17.73,30.49-4.31,3.8-9.18,6.95-14.4,9.36-5.68,2.62-11.86,3.98-18.07,4.58-12.35,1.19-24.8-.36-37.02-2.07-.69-.1-1.38-.19-2.08-.29-.55-.08-1.19-.36-1.73-.36-.49,0-1.05.26-1.55.33-.88.14-1.76.25-2.65.37-2.96.41-5.93.81-8.9,1.16-6.33.74-12.69,1.27-19.07,1.26s-12.42-.53-18.43-2.06c-5.69-1.45-11.04-3.94-15.95-7.14-9.73-6.33-17.6-15.59-21.9-26.4-5.29-13.3-2.95-27.43-1.44-41.21.37-3.36.69-6.72.9-10.09.1-1.66.18-3.32.23-4.98.02-.79.04-1.57.05-2.36,0-.64.26-1.78-.13-2.33s-1.27-1.05-1.79-1.48c-1.42-1.16-2.82-2.35-4.21-3.56-2.65-2.32-5.23-4.71-7.74-7.19s-4.72-4.81-6.98-7.31l.1.79c2.31-3.98,5.1-7.6,8.47-10.74h-.92c5.16,4.62,10.31,9.25,15.72,13.57s11.49,8.76,17.44,12.84c12.74,8.75,26.3,16.36,40.97,21.38,7.84,2.69,16.06,4.96,24.37,5.43s17.17-1.19,25.49-3.64c14.91-4.38,28.81-11.46,41.79-19.95,11.71-7.66,22.82-16.16,33.28-25.45,1.57-1.39,3.13-2.79,4.7-4.19h-.92c3.37,3.14,6.16,6.76,8.47,10.74.42.72,1.54.07,1.12-.66Z"/>
      </g>
      <g>
        <g>
          <path class="cls-2" d="M18.38.8l63.91,65.41,37.69-11.44c-3.47-.66-8.49-1.19-13.96-2.43-25.55-5.79-45.45-18.08-65.9-33.35-7.75-5.79-11.89-9.36-21.74-18.19"/>
          <path class="cls-1" d="M17.92,1.26c2.11,2.16,4.22,4.32,6.34,6.49,5.1,5.22,10.2,10.45,15.31,15.67,6.15,6.29,12.29,12.58,18.44,18.87,5.31,5.44,10.63,10.88,15.94,16.32,1.75,1.8,3.51,3.59,5.26,5.39.81.83,1.6,1.84,2.51,2.57.04.03.08.08.11.12.16.16.41.23.63.17,11.02-3.34,22.03-6.69,33.05-10.03,1.55-.47,3.1-.94,4.65-1.41.57-.17.66-1.13,0-1.25-3.77-.7-7.58-1.15-11.34-1.89-4.12-.8-8.19-1.87-12.2-3.1-7.53-2.3-14.84-5.29-21.87-8.82-13.67-6.88-26.4-15.69-38.46-25.08C30.24,10.56,24.54,5.45,18.84.34c-.62-.56-1.54.36-.92.92,5.19,4.65,10.38,9.32,15.85,13.66s11.63,8.85,17.66,12.98c12.93,8.85,26.71,16.51,41.62,21.49,4.43,1.48,8.95,2.74,13.52,3.73s8.83,1.45,13.24,2.28v-1.25c-11.02,3.34-22.03,6.69-33.05,10.03-1.55.47-3.1.94-4.65,1.41l.63.17c-2.11-2.16-4.22-4.32-6.34-6.49-5.1-5.22-10.2-10.45-15.31-15.67-6.15-6.29-12.29-12.58-18.44-18.87l-15.94-16.32-5.26-5.39c-.81-.83-1.6-1.84-2.51-2.57-.04-.03-.08-.08-.11-.12-.58-.6-1.5.32-.92.92h0Z"/>
        </g>
        <g>
          <path class="cls-2" d="M221.42.8l-63.91,65.41-37.69-11.44c3.47-.66,8.49-1.19,13.96-2.43,25.55-5.79,45.45-18.08,65.9-33.35,7.75-5.79,11.89-9.36,21.74-18.19"/>
          <path class="cls-1" d="M220.96.34c-2.11,2.16-4.22,4.32-6.34,6.49-5.1,5.22-10.2,10.45-15.31,15.67-6.15,6.29-12.29,12.58-18.44,18.87-5.31,5.44-10.63,10.88-15.94,16.32l-5.26,5.39-1.65,1.69c-.24.24-.7.56-.85.87-.02.04-.08.08-.11.12l.63-.17c-11.02-3.34-22.03-6.69-33.05-10.03-1.55-.47-3.1-.94-4.65-1.41v1.25c3.85-.72,7.74-1.17,11.58-1.93,4.11-.81,8.17-1.88,12.17-3.11,7.5-2.31,14.78-5.29,21.79-8.8,13.75-6.89,26.52-15.76,38.65-25.18,6.13-4.76,11.92-9.94,17.69-15.12.62-.56-.3-1.47-.92-.92-5.16,4.62-10.31,9.25-15.72,13.57-5.72,4.55-11.65,8.87-17.69,12.99-12.9,8.82-26.65,16.46-41.54,21.37-4.38,1.45-8.85,2.69-13.36,3.65s-8.68,1.42-13,2.22c-.66.12-.57,1.08,0,1.25,11.02,3.34,22.03,6.69,33.05,10.03,1.55.47,3.1.94,4.65,1.41.22.07.47,0,.63-.17,2.11-2.16,4.22-4.32,6.34-6.49,5.1-5.22,10.2-10.45,15.31-15.67,6.15-6.29,12.29-12.58,18.44-18.87,5.31-5.44,10.63-10.88,15.94-16.32l5.26-5.39c.82-.84,1.79-1.64,2.51-2.57.03-.04.08-.08.11-.12.58-.6-.33-1.52-.92-.92h0Z"/>
        </g>
      </g>
    </g>
  </g>
</svg>