<?xml version="1.0" encoding="UTF-8"?>
<svg id="Layer_2" data-name="Layer 2" xmlns="http://www.w3.org/2000/svg" viewBox="0 0 239.11 128.47">
  <defs>
    <style>
      .cls-1 {
        fill: #4582af;
      }

      .cls-1, .cls-2, .cls-3 {
        stroke-width: 0px;
      }

      .cls-2 {
        fill: #cb8586;
      }

      .cls-3 {
        fill: #f9f3e2;
      }
    </style>
  </defs>
  <g id="Layer_1-2" data-name="Layer 1">
    <g>
      <g>
        <path class="cls-3" d="M235.99,27.46c-2.44-9.99-7.12-19.72-14.81-26.8-9.85,8.83-13.98,12.4-21.74,18.19-20.46,15.27-40.35,27.56-65.9,33.35-5.47,1.24-10.49,1.78-13.96,2.43.35,8.67.21,19.98-.04,31.43-.24-11.45-.39-22.76-.04-31.43-3.47-.66-8.49-1.19-13.96-2.43-25.55-5.79-45.45-18.08-65.9-33.35C31.9,13.06,27.76,9.48,17.91.66,10.23,7.74,5.54,17.47,3.11,27.46c-2.4,9.86-3.73,22.66-.61,32.46,3.28,10.3,13.26,13.15,23.27,13.02l1.12-.44c-.01,5.91.67,11.79,2.71,17.48,5.29,14.75,16.8,26.68,31.19,33.09,16.92,7.54,39.37,4.46,57.17,1.95.76-.11,1.26-.22,1.59-.42.33.19.83.31,1.59.42,17.79,2.51,40.25,5.6,57.17-1.95,14.39-6.42,25.91-18.34,31.19-33.09,2.04-5.69,2.72-11.57,2.71-17.48l1.12.44c10.01.13,20-2.72,23.27-13.02,3.12-9.8,1.79-22.6-.61-32.46Z"/>
        <path class="cls-1" d="M220.73.19c-5.16,4.62-10.31,9.25-15.72,13.57-5.72,4.55-11.65,8.87-17.69,12.99-12.9,8.82-26.65,16.46-41.54,21.37-4.38,1.45-8.85,2.69-13.36,3.65s-8.68,1.42-13,2.22c-.27.05-.49.36-.48.63.42,10.6.18,21.22-.05,31.82h1.3c-.23-10.6-.46-21.23-.05-31.82.01-.26-.21-.58-.48-.63-3.77-.7-7.58-1.15-11.34-1.89-4.12-.8-8.19-1.87-12.2-3.1-7.53-2.3-14.84-5.29-21.87-8.82-13.67-6.88-26.4-15.69-38.46-25.08C29.77,10.41,24.06,5.3,18.36.19c-.62-.56-1.54.36-.92.92,5.19,4.65,10.38,9.32,15.85,13.66s11.63,8.85,17.66,12.98c12.93,8.85,26.71,16.51,41.62,21.49,4.43,1.48,8.95,2.74,13.52,3.73s8.83,1.45,13.24,2.28l-.48-.63c-.42,10.6-.18,21.22.05,31.82.02.83,1.28.84,1.3,0,.23-10.6.46-21.23.05-31.82l-.48.63c3.85-.72,7.74-1.17,11.58-1.93,4.11-.81,8.17-1.88,12.17-3.11,7.5-2.31,14.78-5.29,21.79-8.8,13.75-6.89,26.52-15.76,38.65-25.18,6.13-4.76,11.92-9.94,17.69-15.12.62-.56-.3-1.47-.92-.92h0Z"/>
        <path class="cls-1" d="M29.35,30.99c0,6.03-.42,12.04-1.05,18.04-.65,6.16-1.54,12.3-1.9,18.49s-.17,12.21,1.25,18.13c1.22,5.11,3.38,10.02,6.09,14.5,5.08,8.42,12.35,15.47,20.83,20.43,9.11,5.34,19.22,7.52,29.7,7.84,6.25.19,12.51-.2,18.72-.85,2.95-.31,5.9-.67,8.85-1.06,1.35-.18,2.7-.37,4.04-.55s2.8-.21,4.02-.8h-.66c1,.49,2.16.54,3.26.7,1.28.18,2.56.36,3.85.53,2.58.35,5.17.68,7.76.97,5.51.62,11.05,1.06,16.6,1.11,10.57.1,21.19-1.31,30.7-6.15,8.78-4.46,16.44-11.08,22.05-19.17,2.78-4.01,5.05-8.4,6.69-13,2.06-5.76,2.77-11.89,2.73-17.99-.04-7.01-1.04-13.96-1.82-20.91s-1.28-13.48-1.29-20.26c0-.84-1.3-.84-1.3,0,0,5.89.4,11.75,1.01,17.6.61,5.84,1.44,11.67,1.86,17.53s.4,12.28-.9,18.27c-1.12,5.16-3.2,10.08-5.87,14.62-4.98,8.45-12.19,15.5-20.65,20.45-9.1,5.34-19.2,7.43-29.67,7.68-10.65.25-21.26-1.12-31.78-2.6-.52-.07-1.04-.13-1.55-.22-.42-.08-.92-.36-1.34-.38-.38-.01-.79.27-1.16.34-.7.14-1.41.22-2.12.31-2.54.36-5.08.71-7.63,1.03-5.33.67-10.68,1.21-16.05,1.44-10.45.44-21.41-.18-31.12-4.4-8.94-3.88-16.92-10.04-22.9-17.74-6.75-8.68-10.64-18.98-11-29.99-.39-11.75,2.1-23.41,2.81-35.11.18-2.94.26-5.89.27-8.84,0-.84-1.3-.84-1.3,0h0Z"/>
        <path class="cls-1" d="M220.73,1.11c9.36,8.71,14.01,20.96,16.03,33.34,1.04,6.4,1.47,13.05.53,19.5-.81,5.53-2.65,10.91-7.4,14.24s-10.86,4.15-16.56,4.09c-.84,0-.84,1.29,0,1.3,5.32.05,10.9-.63,15.61-3.27,4.97-2.77,7.75-7.43,9-12.87,1.5-6.55,1.36-13.44.53-20.07-.82-6.49-2.27-12.95-4.71-19.03-2.74-6.82-6.72-13.13-12.12-18.16-.61-.57-1.53.35-.92.92h0Z"/>
        <path class="cls-1" d="M17.45.19C7.58,9.38,2.77,22.46.86,35.55c-.96,6.58-1.28,13.37-.12,19.95.98,5.54,3.17,10.64,7.93,13.91s11.23,4.24,17.08,4.18c.83,0,.84-1.31,0-1.3-5.15.05-10.55-.58-15.1-3.17-4.95-2.81-7.38-7.56-8.48-12.99-1.27-6.28-1.05-12.85-.22-19.17.81-6.16,2.23-12.3,4.53-18.07,2.66-6.68,6.58-12.86,11.87-17.77.61-.57-.31-1.49-.92-.92h0Z"/>
      </g>
      <path class="cls-1" d="M17.57,1.11c2.11,2.16,4.22,4.32,6.34,6.49,5.1,5.22,10.2,10.45,15.31,15.67,6.15,6.29,12.29,12.58,18.44,18.87,5.31,5.44,10.63,10.88,15.94,16.32,1.75,1.8,3.51,3.59,5.26,5.39.81.83,1.6,1.84,2.51,2.57.04.03.08.08.11.12.16.16.41.23.63.17,11.02-3.34,22.03-6.69,33.05-10.03,1.55-.47,3.1-.94,4.65-1.41.57-.17.66-1.13,0-1.25-3.77-.7-7.58-1.15-11.34-1.89-4.12-.8-8.19-1.87-12.2-3.1-7.53-2.3-14.84-5.29-21.87-8.82-13.67-6.88-26.4-15.69-38.46-25.08C29.89,10.41,24.19,5.3,18.49.19c-.62-.56-1.54.36-.92.92,5.19,4.65,10.38,9.32,15.85,13.66s11.63,8.85,17.66,12.98c12.93,8.85,26.71,16.51,41.62,21.49,4.43,1.48,8.95,2.74,13.52,3.73s8.83,1.45,13.24,2.28v-1.25c-11.02,3.34-22.03,6.69-33.05,10.03-1.55.47-3.1.94-4.65,1.41l.63.17c-2.11-2.16-4.22-4.32-6.34-6.49-5.1-5.22-10.2-10.45-15.31-15.67-6.15-6.29-12.29-12.58-18.44-18.87-5.31-5.44-10.63-10.88-15.94-16.32-1.75-1.8-3.51-3.59-5.26-5.39-.81-.83-1.6-1.84-2.51-2.57-.04-.03-.08-.08-.11-.12-.58-.6-1.5.32-.92.92h0Z"/>
      <path class="cls-1" d="M220.61.19c-2.11,2.16-4.22,4.32-6.34,6.49-5.1,5.22-10.2,10.45-15.31,15.67-6.15,6.29-12.29,12.58-18.44,18.87l-15.94,16.32-5.26,5.39-1.65,1.69c-.24.24-.7.56-.85.87-.02.04-.08.08-.11.12l.63-.17c-11.02-3.34-22.03-6.69-33.05-10.03-1.55-.47-3.1-.94-4.65-1.41v1.25c3.85-.72,7.74-1.17,11.58-1.93,4.11-.81,8.17-1.88,12.17-3.11,7.5-2.31,14.78-5.29,21.79-8.8,13.75-6.89,26.52-15.76,38.65-25.18,6.13-4.76,11.92-9.94,17.69-15.12.62-.56-.3-1.47-.92-.92-5.16,4.62-10.31,9.25-15.72,13.57-5.72,4.55-11.65,8.87-17.69,12.99-12.9,8.82-26.65,16.46-41.54,21.37-4.38,1.45-8.85,2.69-13.36,3.65s-8.68,1.42-13,2.22c-.66.12-.57,1.08,0,1.25,11.02,3.34,22.03,6.69,33.05,10.03,1.55.47,3.1.94,4.65,1.41.22.07.47,0,.63-.17,2.11-2.16,4.22-4.32,6.34-6.49,5.1-5.22,10.2-10.45,15.31-15.67,6.15-6.29,12.29-12.58,18.44-18.87,5.31-5.44,10.63-10.88,15.94-16.32l5.26-5.39c.82-.84,1.79-1.64,2.51-2.57.03-.04.08-.08.11-.12.58-.6-.33-1.52-.92-.92h0Z"/>
      <g>
        <g>
          <path class="cls-2" d="M119.57,120.04c-3.3-3.92-6.61-7.83-9.92-11.73-1.98-2.34-2.92-4.72-2.81-7.99.12-3.44.62-6.85,1.19-10.22.91-5.43,1.99-10.81,3.24-16.15.22-.94.45-1.89.94-2.68.65-1.05,1.66-1.38,2.72-1.46h9.27c1.06.09,2.07.42,2.72,1.46.49.79.72,1.74.94,2.68,1.25,5.33,2.33,10.72,3.24,16.15.57,3.37,1.07,6.78,1.19,10.22.11,3.27-.83,5.65-2.81,7.99-3.31,3.91-6.62,7.82-9.92,11.73h.01Z"/>
          <path class="cls-1" d="M120.02,119.59c-2.98-3.54-5.97-7.07-8.96-10.6-1.3-1.54-2.56-3.05-3.16-5.01s-.45-4.07-.28-6.11c.38-4.63,1.26-9.24,2.14-13.8.44-2.3.92-4.59,1.43-6.88.23-1.02.46-2.05.7-3.06.26-1.09.51-2.47,1.48-3.15,1.34-.95,3.8-.52,5.33-.52,1.79,0,3.61-.1,5.39,0,2.05.11,2.67,1.71,3.1,3.47.53,2.18,1,4.38,1.46,6.58.92,4.44,1.77,8.91,2.4,13.39.67,4.73,1.4,9.66-1.77,13.65s-6.79,8.03-10.17,12.04c-.35.41-.14,1.1.45,1.1h.01c.83,0,.83-1.28,0-1.28h-.01c.15.37.3.73.45,1.1,3.38-4.01,6.88-7.95,10.17-12.04,2.69-3.33,2.93-6.95,2.56-11.08-.46-5.06-1.43-10.1-2.42-15.08-.49-2.45-1.01-4.9-1.57-7.34-.41-1.8-.71-4.08-2.41-5.16-1.59-1.01-4-.63-5.79-.63s-3.76-.11-5.62,0c-1.72.1-3,.99-3.67,2.57-.89,2.09-1.2,4.55-1.67,6.76-1.09,5.06-2.07,10.17-2.79,15.3-.64,4.58-1.4,9.56,1.35,13.61,1.52,2.23,3.46,4.22,5.2,6.28,1.92,2.27,3.84,4.54,5.76,6.82.53.63,1.44-.28.91-.91Z"/>
        </g>
        <g>
          <path class="cls-2" d="M122.75,55.72c2.22.65,5.54,1.54,7.88,2.35,1.13,1.79-.19,3.95-1.05,5.56-.96,1.8-2.09,3.51-3.38,5.09-1.8,2.21-3.98,4.37-7.14,4.06-.3-.03-.6-.09-.89-.19-2.18-.49-3.84-2.2-5.26-3.94-1.29-1.59-2.43-3.29-3.38-5.09-.85-1.61-2.18-3.77-1.05-5.56,2.33-.82,5.66-1.7,7.88-2.35.02,0,.04-.01.06-.02l3.05-.97,3.27,1.06Z"/>
          <path class="cls-1" d="M122.57,56.34c2.1.61,4.22,1.18,6.31,1.84.4.13,1.09.23,1.34.55.33.42.2,1.23.09,1.7-.27,1.14-.91,2.2-1.47,3.22-1.12,2.04-2.46,3.99-4.03,5.72-1.42,1.55-3.19,2.91-5.4,2.8-2.46-.12-4.33-1.91-5.81-3.69-1.56-1.87-2.84-3.93-3.96-6.09-.5-.96-1.14-2.17-.9-3.29.13-.63.43-.65,1-.83.62-.2,1.23-.39,1.85-.57,1.7-.51,3.42-.95,5.12-1.48.61-.19,1.22-.39,1.82-.58.27-.09.59-.15.85-.27.07-.03.15-.04.22-.07.03-.01-.4-.12-.19.02.44.3,1.23.4,1.74.56l1.43.47c.79.26,1.13-.98.34-1.24-1.02-.33-2.19-.93-3.25-1.06-.44-.05-.86.15-1.27.29-.69.22-1.37.45-2.06.66-2.25.69-4.53,1.26-6.77,1.98-1.13.36-1.78.55-2.06,1.78-.26,1.15.11,2.33.58,3.37,1.12,2.5,2.66,4.86,4.38,6.98,1.62,1.99,3.53,3.77,6.13,4.25,5.07.94,8.82-4.66,10.98-8.4.7-1.22,1.48-2.51,1.89-3.87.3-1,.47-2.66-.39-3.47-.34-.32-1.09-.44-1.52-.58-.79-.25-1.59-.49-2.39-.72-1.41-.41-2.83-.8-4.25-1.22-.8-.23-1.13,1.01-.34,1.24Z"/>
        </g>
      </g>
    </g>
  </g>
</svg>