<?xml version="1.0" encoding="UTF-8"?>
<svg id="Layer_2" data-name="Layer 2" xmlns="http://www.w3.org/2000/svg" xmlns:xlink="http://www.w3.org/1999/xlink" viewBox="0 0 150.04 101.53">
  <defs>
    <style>
      .cls-1 {
        fill: url(#linear-gradient-4);
      }

      .cls-1, .cls-2, .cls-3, .cls-4, .cls-5, .cls-6, .cls-7, .cls-8, .cls-9 {
        stroke-miterlimit: 10;
        stroke-width: 1.03px;
      }

      .cls-1, .cls-2, .cls-4, .cls-7, .cls-9 {
        stroke: #4582af;
      }

      .cls-2 {
        fill: url(#linear-gradient-3);
      }

      .cls-3 {
        stroke: #fff;
      }

      .cls-3, .cls-9 {
        fill: #fff;
      }

      .cls-4 {
        fill: #4582af;
      }

      .cls-5 {
        fill: url(#linear-gradient);
        stroke: url(#linear-gradient-2);
      }

      .cls-6 {
        fill: #b8b89f;
        stroke: #b8b89f;
      }

      .cls-7 {
        fill: none;
      }

      .cls-8 {
        fill: #ebe895;
        stroke: #ebe895;
      }
    </style>
    <linearGradient id="linear-gradient" x1="75.02" y1="101.01" x2="75.02" y2="7.32" gradientUnits="userSpaceOnUse">
      <stop offset="0" stop-color="#f9f3e2"/>
      <stop offset=".24" stop-color="#f5f1df"/>
      <stop offset=".43" stop-color="#ebedd9"/>
      <stop offset=".61" stop-color="#dae6ce"/>
      <stop offset=".77" stop-color="#c3dcbe"/>
      <stop offset=".93" stop-color="#a4d0aa"/>
      <stop offset="1" stop-color="#95caa0"/>
    </linearGradient>
    <linearGradient id="linear-gradient-2" y1="101.53" y2="6.81" xlink:href="#linear-gradient"/>
    <linearGradient id="linear-gradient-3" x1="115.34" y1="64.28" x2="115.34" y2="34.42" gradientUnits="userSpaceOnUse">
      <stop offset="0" stop-color="#ffdaa4"/>
      <stop offset=".5" stop-color="#4582af"/>
    </linearGradient>
    <linearGradient id="linear-gradient-4" x1="34.32" y1="75.12" x2="34.32" y2="34.42" xlink:href="#linear-gradient-3"/>
  </defs>
  <g id="Layer_1-2" data-name="Layer 1">
    <g>
      <path class="cls-5" d="M149.53,50.6c0-23.9-19.38-43.28-43.28-43.28-12.28,0-23.35,5.12-31.23,13.33-7.88-8.21-18.95-13.33-31.23-13.33C19.89,7.32.51,26.7.51,50.6c0,17.41,10.28,32.41,25.1,39.28,12.77,6.89,30.19,11.14,49.4,11.14s36.63-4.24,49.4-11.14c14.82-6.87,25.1-21.87,25.1-39.28Z"/>
      <g>
        <path class="cls-9" d="M100.35,64.35h0c12.8-5.93,27.61-5.9,40.37.12l.04.02c2.37-4.5,3.74-9.84,3.74-15.57,0-16.01-10.7-28.99-23.91-28.99s-23.91,12.98-23.91,28.99c0,5.67,1.34,10.96,3.66,15.43"/>
        <path class="cls-2" d="M131.27,61.18c.55-2.01.85-4.17.85-6.41,0-11.24-7.51-20.35-16.78-20.35s-16.78,9.11-16.78,20.35c0,3.43.7,6.67,1.94,9.51,9.7-4.45,20.54-5.49,30.76-3.1Z"/>
        <path class="cls-4" d="M121.91,54.77c0-4.4-2.94-7.97-6.57-7.97s-6.57,3.57-6.57,7.97c0,2.44.9,4.61,2.32,6.08,3.05-.61,6.15-.92,9.25-.92.97-1.39,1.56-3.19,1.56-5.15Z"/>
        <path class="cls-8" d="M107.95,58.12c-.87,0-1.57.7-1.57,1.57s.7,1.57,1.57,1.57,1.57-.7,1.57-1.57-.7-1.57-1.57-1.57Z"/>
        <circle class="cls-3" cx="123.2" cy="44.83" r="4.72"/>
        <path class="cls-7" d="M100.35,64.35h0c12.8-5.93,27.61-5.9,40.37.12l.04.02c2.37-4.5,3.74-9.84,3.74-15.57,0-16.01-10.7-28.99-23.91-28.99s-23.91,12.98-23.91,28.99c0,5.67,1.34,10.96,3.66,15.43"/>
        <g>
          <ellipse class="cls-9" cx="29.33" cy="48.91" rx="23.91" ry="28.99"/>
          <ellipse class="cls-1" cx="34.32" cy="54.77" rx="16.78" ry="20.35"/>
          <ellipse class="cls-4" cx="34.32" cy="54.77" rx="6.57" ry="7.97"/>
          <circle class="cls-3" cx="42.18" cy="44.83" r="4.72"/>
          <circle class="cls-8" cx="29.99" cy="62.6" r="1.06"/>
          <circle class="cls-8" cx="26.93" cy="59.69" r="1.57"/>
        </g>
      </g>
      <g>
        <ellipse class="cls-4" cx="43.36" cy="7.58" rx="11.4" ry="4.81" transform="translate(2.02 22.7) rotate(-30)"/>
        <ellipse class="cls-4" cx="106.67" cy="7.58" rx="11.4" ry="4.81" transform="translate(10.5 54.35) rotate(-30)"/>
      </g>
      <g>
        <ellipse class="cls-6" cx="75.06" cy="48.55" rx="5.77" ry="14.25"/>
        <g>
          <g>
            <path class="cls-7" d="M87.96,68.09c-1.92-1.24-3.18-3.4-3.18-5.85s1.22-4.53,3.07-5.78"/>
            <path class="cls-7" d="M62.17,68.09c1.92-1.24,3.18-3.4,3.18-5.85,0-2.41-1.22-4.53-3.07-5.78"/>
          </g>
          <path class="cls-7" d="M84.77,62.91c-2.82-4.27-5.21-6.35-7.19-6.25-.88.04-1.67.52-2.38,1.42h-.27c-.71-.91-1.51-1.38-2.38-1.42-1.98-.1-4.37,1.99-7.19,6.25"/>
        </g>
      </g>
    </g>
  </g>
</svg>