<?xml version="1.0" encoding="UTF-8"?>
<svg id="Layer_2" data-name="Layer 2" xmlns="http://www.w3.org/2000/svg" viewBox="0 0 144.84 56.83">
  <defs>
    <style>
      .cls-1 {
        fill: #68736b;
        stroke: #4582af;
        stroke-miterlimit: 10;
        stroke-width: 1.03px;
      }
    </style>
  </defs>
  <g id="Layer_1-2" data-name="Layer 1">
    <g id="OM4Wkh">
      <path class="cls-1" d="M59.24.62c9.72-.18,19.45-.13,29.17.06,4.81.09,9.61.22,14.42.37,7.01.22,14.12.5,20.82,2.6,6.69,2.1,13.03,6.28,16.22,12.53.61,1.2,1.14,2.52,2.19,3.37.52.42,1.04.92,1.52,1.39,1.53,1.52.61,3.87-1.6,4.7.46,9.51-1.79,19.96-9.23,25.91-6.43,5.14-15.66,5.8-23.46,3.17-7.8-2.63-14.32-8.16-19.71-14.38-6.27-7.23-11.45-16.21-10.97-25.77.06-1.25.15-2.71-.8-3.54-.46-.41-1.09-.56-1.69-.68-2.39-.46-4.87-.42-7.25.09-.88.19-1.83.51-2.26,1.31-.34.64-.24,1.42-.17,2.14.97,9.61-4.36,18.75-10.65,26.08-4.89,5.7-10.62,10.89-17.52,13.87-6.89,2.98-15.1,3.54-21.83.2-8.91-4.41-13.64-14.98-13.17-24.91.04-.92.12-1.89-.26-2.73-.64-1.43-2.49-2.3-2.49-3.87,0-1.57,1.83-2.36,3.01-3.4,1.33-1.17,1.96-2.91,2.79-4.47,2.51-4.74,7.13-8.1,12.12-10.05C28.92.49,41.27,1.13,52.36.79c2.29-.07,4.59-.13,6.88-.17ZM89.75,2.94c-11.55-.71-22.81-.71-34.26,0,.25.36.29.47.36.51.25.13.5.26.76.36,3.1,1.19,5.92,2.77,7.83,5.61.46.69.94.47,1.55.16,4.37-2.22,8.77-2.27,13.14.02.69.36,1.15.42,1.64-.29,1.79-2.59,4.36-4.15,7.22-5.29.51-.2,1.06-.32,1.76-1.06Z"/>
    </g>
  </g>
</svg>