<?xml version="1.0" encoding="UTF-8"?>
<svg id="Layer_2" data-name="Layer 2" xmlns="http://www.w3.org/2000/svg" viewBox="0 0 146.58 37.99">
  <defs>
    <style>
      .cls-1 {
        fill: #4582af;
        stroke: #4582af;
        stroke-width: 1.03px;
      }

      .cls-1, .cls-2 {
        stroke-miterlimit: 10;
      }

      .cls-2 {
        fill: #cb8586;
        stroke: #fff;
        stroke-width: .47px;
      }
    </style>
  </defs>
  <g id="Layer_1-2" data-name="Layer 1">
    <g>
      <path class="cls-1" d="M145.41,36.88c-9.54-11.46-38.15-19.78-71.95-19.78S10.92,25.46,1.44,36.96l-.52.18C9.82,16,38.93.51,73.45.51s63.88,15.62,72.65,36.89"/>
      <g>
        <path class="cls-2" d="M61.8,13.16l-.18-1.5.75-.09-.55-4.49-.75.09-.18-1.5,2.25-.27,2.77,4.01-.34-2.78-.75.09-.18-1.5,3-.36.18,1.5-.75.09.73,5.99-1.5.18-2.77-4.01.34,2.78.75-.09.18,1.5-3,.36Z"/>
        <path class="cls-2" d="M70.65,12.31l-1.23-1.18-.12-5.13,1.18-1.23,2.11-.05,1.23,1.18.12,5.13-1.18,1.23-2.11.05ZM70.92,10.8l1.51-.03-.1-4.53-1.51.03.1,4.53Z"/>
        <path class="cls-2" d="M76.1,12.31l-1.14-1.27.28-5.12,1.27-1.14,2.11.12,1.14,1.27-.06,1.05-1.51-.08.04-.75-1.51-.08-.25,4.52,1.51.08.04-.75,1.51.08-.06,1.05-1.27,1.14-2.11-.12Z"/>
        <path class="cls-2" d="M80.65,10.34l1.49.21-.1.75,1.49.21.21-1.49-1.79-.25-1.03-1.36.29-2.09,1.36-1.03,2.09.29,1.03,1.36-.15,1.05-1.49-.21.1-.75-1.49-.21-.21,1.49,1.77.25,1.05,1.37-.29,2.09-1.36,1.03-2.09-.29-1.03-1.36.15-1.05Z"/>
      </g>
    </g>
  </g>
</svg>